Saira-PARAMETRIC-JUN_XOPQ230.ufo
<glyph name="comma" format="2">
  <advance width="330"/>
  <unicode hex="002C"/>
  <outline>
    <contour>
      <point x="27" y="-120" type="line"/>
      <point x="236" y="-120"/>
      <point x="280" y="-100"/>
      <point x="280" y="0" type="curve" smooth="yes"/>
      <point x="280" y="110" type="line"/>
      <point x="50" y="110" type="line"/>
      <point x="50" y="0" type="line"/>
      <point x="148" y="0" type="line"/>
      <point x="148" y="-27" type="line" smooth="yes"/>
      <point x="148" y="-67"/>
      <point x="127" y="-75"/>
      <point x="27" y="-75" type="curve"/>
    </contour>
  </outline>
</glyph>
<glyph name="A" format="2">
  <advance width="770"/>
  <unicode hex="0041"/>
  <anchor x="385" y="0" name="bottom"/>
  <anchor x="693" y="10" name="ogonek"/>
  <anchor x="385" y="688" name="top"/>
  <outline>
    <contour>
      <point x="8" y="0" type="line"/>
      <point x="96" y="0" type="line"/>
      <point x="308" y="570" type="line"/>
      <point x="314" y="570" type="line"/>
      <point x="525" y="0" type="line"/>
      <point x="762" y="0" type="line"/>
      <point x="497" y="688" type="line"/>
      <point x="274" y="688" type="line"/>
    </contour>
    <contour>
      <point x="136" y="189" type="line"/>
      <point x="569" y="189" type="line"/>
      <point x="547" y="263" type="line"/>
      <point x="159" y="263" type="line"/>
    </contour>
  </outline>
</glyph>
<glyph name="B" format="2">
  <advance width="954"/>
  <unicode hex="0042"/>
  <anchor x="467" y="0" name="bottom"/>
  <anchor x="467" y="688" name="top"/>
  <outline>
    <contour>
      <point x="78" y="0" type="line"/>
      <point x="492" y="0" type="line" smooth="yes"/>
      <point x="803" y="0"/>
      <point x="888" y="40"/>
      <point x="888" y="190" type="curve" smooth="yes"/>
      <point x="888" y="197" type="line" smooth="yes"/>
      <point x="888" y="335"/>
      <point x="802" y="375"/>
      <point x="492" y="375" type="curve" smooth="yes"/>
      <point x="263" y="375" type="line"/>
      <point x="263" y="315" type="line"/>
      <point x="492" y="315" type="line" smooth="yes"/>
      <point x="633" y="315"/>
      <point x="658" y="299"/>
      <point x="658" y="211" type="curve" smooth="yes"/>
      <point x="658" y="176" type="line" smooth="yes"/>
      <point x="658" y="89"/>
      <point x="633" y="74"/>
      <point x="492" y="74" type="curve" smooth="yes"/>
      <point x="204" y="74" type="line"/>
      <point x="308" y="43" type="line"/>
      <point x="308" y="645" type="line"/>
      <point x="204" y="614" type="line"/>
      <point x="478" y="614" type="line" smooth="yes"/>
      <point x="619" y="614"/>
      <point x="644" y="600"/>
      <point x="644" y="518" type="curve" smooth="yes"/>
      <point x="644" y="483" type="line" smooth="yes"/>
      <point x="644" y="400"/>
      <point x="619" y="385"/>
      <point x="478" y="385" type="curve" smooth="yes"/>
      <point x="263" y="385" type="line"/>
      <point x="263" y="325" type="line"/>
      <point x="478" y="325" type="line" smooth="yes"/>
      <point x="788" y="325"/>
      <point x="874" y="364"/>
      <point x="874" y="497" type="curve" smooth="yes"/>
      <point x="874" y="504" type="line" smooth="yes"/>
      <point x="874" y="649"/>
      <point x="789" y="688"/>
      <point x="478" y="688" type="curve" smooth="yes"/>
      <point x="78" y="688" type="line"/>
    </contour>
  </outline>
</glyph>
<glyph name="C" format="2">
  <advance width="755"/>
  <unicode hex="0043"/>
  <anchor x="380" y="0" name="bottom"/>
  <anchor x="380" y="688" name="top"/>
  <outline>
    <contour>
      <point x="503" y="-8" type="curve" smooth="yes"/>
      <point x="565" y="-8"/>
      <point x="639" y="-3"/>
      <point x="681" y="5" type="curve"/>
      <point x="681" y="76" type="line"/>
      <point x="640" y="70"/>
      <point x="570" y="66"/>
      <point x="503" y="66" type="curve" smooth="yes"/>
      <point x="303" y="66"/>
      <point x="289" y="83"/>
      <point x="289" y="310" type="curve" smooth="yes"/>
      <point x="289" y="378" type="line" smooth="yes"/>
      <point x="289" y="605"/>
      <point x="303" y="622"/>
      <point x="503" y="622" type="curve" smooth="yes"/>
      <point x="567" y="622"/>
      <point x="629" y="618"/>
      <point x="677" y="612" type="curve"/>
      <point x="677" y="681" type="line"/>
      <point x="636" y="690"/>
      <point x="563" y="696"/>
      <point x="503" y="696" type="curve" smooth="yes"/>
      <point x="127" y="696"/>
      <point x="59" y="644"/>
      <point x="59" y="349" type="curve" smooth="yes"/>
      <point x="59" y="339" type="line" smooth="yes"/>
      <point x="59" y="44"/>
      <point x="127" y="-8"/>
    </contour>
  </outline>
</glyph>
<glyph name="D" format="2">
  <advance width="937"/>
  <unicode hex="0044"/>
  <anchor x="469" y="0" name="bottom"/>
  <anchor x="235" y="344" name="center"/>
  <anchor x="469" y="688" name="top"/>
  <outline>
    <contour>
      <point x="78" y="0" type="line"/>
      <point x="452" y="0" type="line" smooth="yes"/>
      <point x="814" y="0"/>
      <point x="878" y="51"/>
      <point x="878" y="339" type="curve" smooth="yes"/>
      <point x="878" y="349" type="line" smooth="yes"/>
      <point x="878" y="637"/>
      <point x="814" y="688"/>
      <point x="452" y="688" type="curve" smooth="yes"/>
      <point x="78" y="688" type="line"/>
    </contour>
    <contour>
      <point x="308" y="37" type="line"/>
      <point x="308" y="651" type="line"/>
      <point x="204" y="614" type="line"/>
      <point x="452" y="614" type="line" smooth="yes"/>
      <point x="635" y="614"/>
      <point x="648" y="597"/>
      <point x="648" y="377" type="curve" smooth="yes"/>
      <point x="648" y="311" type="line" smooth="yes"/>
      <point x="648" y="91"/>
      <point x="635" y="74"/>
      <point x="452" y="74" type="curve" smooth="yes"/>
      <point x="204" y="74" type="line"/>
    </contour>
  </outline>
</glyph>
<glyph name="E" format="2">
  <advance width="744"/>
  <unicode hex="0045"/>
  <anchor x="334" y="0" name="bottom"/>
  <anchor x="643" y="10" name="ogonek"/>
  <anchor x="334" y="688" name="top"/>
  <anchor x="-32" y="688" name="topleft"/>
  <outline>
    <contour>
      <point x="231" y="385" type="line"/>
      <point x="231" y="311" type="line"/>
      <point x="658" y="311" type="line"/>
      <point x="658" y="385" type="line"/>
    </contour>
    <contour>
      <point x="308" y="37" type="line"/>
      <point x="308" y="651" type="line"/>
      <point x="231" y="614" type="line"/>
      <point x="705" y="614" type="line"/>
      <point x="705" y="688" type="line"/>
      <point x="78" y="688" type="line"/>
      <point x="78" y="0" type="line"/>
      <point x="705" y="0" type="line"/>
      <point x="705" y="74" type="line"/>
      <point x="231" y="74" type="line"/>
    </contour>
  </outline>
</glyph>
<glyph name="F" format="2">
  <advance width="726"/>
  <unicode hex="0046"/>
  <anchor x="503" y="0" name="bottom"/>
  <anchor x="503" y="688" name="top"/>
  <outline>
    <contour>
      <point x="271" y="375" type="line"/>
      <point x="271" y="301" type="line"/>
      <point x="648" y="301" type="line"/>
      <point x="648" y="375" type="line"/>
    </contour>
    <contour>
      <point x="308" y="0" type="line"/>
      <point x="308" y="651" type="line"/>
      <point x="271" y="614" type="line"/>
      <point x="695" y="614" type="line"/>
      <point x="695" y="688" type="line"/>
      <point x="78" y="688" type="line"/>
      <point x="78" y="0" type="line"/>
    </contour>
  </outline>
</glyph>
<glyph name="G" format="2">
  <advance width="929"/>
  <unicode hex="0047"/>
  <anchor x="464" y="0" name="bottom"/>
  <anchor x="464" y="688" name="top"/>
  <outline>
    <contour>
      <point x="533" y="-8" type="curve" smooth="yes"/>
      <point x="652" y="-8"/>
      <point x="782" y="2"/>
      <point x="855" y="18" type="curve"/>
      <point x="855" y="370" type="line"/>
      <point x="476" y="370" type="line"/>
      <point x="476" y="300" type="line"/>
      <point x="635" y="300" type="line"/>
      <point x="635" y="72" type="line"/>
      <point x="599" y="68"/>
      <point x="562" y="66"/>
      <point x="524" y="66" type="curve" smooth="yes"/>
      <point x="305" y="66"/>
      <point x="289" y="83"/>
      <point x="289" y="310" type="curve" smooth="yes"/>
      <point x="289" y="378" type="line" smooth="yes"/>
      <point x="289" y="605"/>
      <point x="306" y="622"/>
      <point x="533" y="622" type="curve" smooth="yes"/>
      <point x="658" y="622"/>
      <point x="767" y="619"/>
      <point x="847" y="612" type="curve"/>
      <point x="847" y="683" type="line"/>
      <point x="772" y="691"/>
      <point x="642" y="696"/>
      <point x="533" y="696" type="curve" smooth="yes"/>
      <point x="131" y="696"/>
      <point x="59" y="644"/>
      <point x="59" y="349" type="curve" smooth="yes"/>
      <point x="59" y="339" type="line" smooth="yes"/>
      <point x="59" y="44"/>
      <point x="131" y="-8"/>
    </contour>
  </outline>
</glyph>
<glyph name="H" format="2">
  <advance width="966"/>
  <unicode hex="0048"/>
  <anchor x="483" y="0" name="bottom"/>
  <anchor x="483" y="550" name="center"/>
  <anchor x="483" y="688" name="top"/>
  <anchor x="20" y="688" name="topleft"/>
  <outline>
    <contour>
      <point x="78" y="0" type="line"/>
      <point x="308" y="0" type="line"/>
      <point x="308" y="347" type="line"/>
      <point x="198" y="310" type="line"/>
      <point x="768" y="310" type="line"/>
      <point x="658" y="347" type="line"/>
      <point x="658" y="0" type="line"/>
      <point x="888" y="0" type="line"/>
      <point x="888" y="688" type="line"/>
      <point x="658" y="688" type="line"/>
      <point x="658" y="347" type="line"/>
      <point x="768" y="384" type="line"/>
      <point x="198" y="384" type="line"/>
      <point x="308" y="347" type="line"/>
      <point x="308" y="688" type="line"/>
      <point x="78" y="688" type="line"/>
    </contour>
  </outline>
</glyph>
<glyph name="I" format="2">
  <advance width="386"/>
  <unicode hex="0049"/>
  <anchor x="193" y="0" name="bottom"/>
  <anchor x="347" y="10" name="ogonek"/>
  <anchor x="193" y="688" name="top"/>
  <anchor x="20" y="688" name="topleft"/>
  <outline>
    <contour>
      <point x="78" y="0" type="line"/>
      <point x="308" y="0" type="line"/>
      <point x="308" y="688" type="line"/>
      <point x="78" y="688" type="line"/>
    </contour>
  </outline>
</glyph>
<glyph name="J" format="2">
  <advance width="480"/>
  <unicode hex="004A"/>
  <anchor x="240" y="0" name="bottom"/>
  <anchor x="240" y="688" name="top"/>
  <outline>
    <contour>
      <point x="402" y="688" type="line"/>
      <point x="172" y="688" type="line"/>
      <point x="172" y="141" type="line" smooth="yes"/>
      <point x="172" y="78"/>
      <point x="147" y="66"/>
      <point x="4" y="66" type="curve"/>
      <point x="4" y="-4" type="line"/>
      <point x="315" y="-4"/>
      <point x="402" y="29"/>
      <point x="402" y="148" type="curve" smooth="yes"/>
    </contour>
  </outline>
</glyph>
<glyph name="K" format="2">
  <advance width="880"/>
  <unicode hex="004B"/>
  <anchor x="718" y="0" name="bottom"/>
  <anchor x="718" y="688" name="top"/>
  <outline>
    <contour>
      <point x="303" y="313" type="line"/>
      <point x="368" y="313" type="line"/>
      <point x="596" y="0" type="line"/>
      <point x="872" y="0" type="line"/>
      <point x="617" y="350" type="line"/>
      <point x="862" y="688" type="line"/>
      <point x="759" y="688" type="line"/>
      <point x="543" y="387" type="line"/>
      <point x="303" y="387" type="line"/>
    </contour>
    <contour>
      <point x="78" y="0" type="line"/>
      <point x="308" y="0" type="line"/>
      <point x="308" y="688" type="line"/>
      <point x="78" y="688" type="line"/>
    </contour>
  </outline>
</glyph>
<glyph name="L" format="2">
  <advance width="701"/>
  <unicode hex="004C"/>
  <anchor x="338" y="0" name="bottom"/>
  <anchor x="338" y="344" name="center"/>
  <anchor x="338" y="688" name="top"/>
  <anchor x="656" y="688" name="topright"/>
  <outline>
    <contour>
      <point x="78" y="0" type="line"/>
      <point x="685" y="0" type="line"/>
      <point x="685" y="74" type="line"/>
      <point x="231" y="74" type="line"/>
      <point x="308" y="37" type="line"/>
      <point x="308" y="688" type="line"/>
      <point x="78" y="688" type="line"/>
    </contour>
  </outline>
</glyph>
<glyph name="M" format="2">
  <advance width="920"/>
  <unicode hex="004D"/>
  <outline>
    <contour>
      <point x="78" y="0" type="line"/>
      <point x="160" y="0" type="line"/>
      <point x="160" y="465" type="line"/>
      <point x="339" y="0" type="line"/>
      <point x="434" y="0" type="line"/>
      <point x="612" y="465" type="line"/>
      <point x="612" y="0" type="line"/>
      <point x="842" y="0" type="line"/>
      <point x="842" y="688" type="line"/>
      <point x="636" y="688" type="line"/>
      <point x="461" y="232" type="line"/>
      <point x="284" y="688" type="line"/>
      <point x="78" y="688" type="line"/>
    </contour>
  </outline>
</glyph>
<glyph name="N" format="2">
  <advance width="670"/>
  <unicode hex="004E"/>
  <anchor x="314" y="0" name="bottom"/>
  <anchor x="314" y="688" name="top"/>
  <outline>
    <contour>
      <point x="78" y="0" type="line"/>
      <point x="160" y="0" type="line"/>
      <point x="160" y="395" type="line"/>
      <point x="505" y="0" type="line"/>
      <point x="592" y="0" type="line"/>
      <point x="592" y="688" type="line"/>
      <point x="510" y="688" type="line"/>
      <point x="510" y="293" type="line"/>
      <point x="165" y="688" type="line"/>
      <point x="78" y="688" type="line"/>
    </contour>
  </outline>
</glyph>
<glyph name="O" format="2">
  <advance width="970"/>
  <unicode hex="004F"/>
  <anchor x="485" y="-2" name="bottom"/>
  <anchor x="485" y="344" name="center"/>
  <anchor x="874" y="10" name="ogonek"/>
  <anchor x="485" y="688" name="top"/>
  <anchor x="19" y="688" name="topleft"/>
  <anchor x="951" y="688" name="topright"/>
  <outline>
    <contour>
      <point x="485" y="-8" type="curve" smooth="yes"/>
      <point x="826" y="-8"/>
      <point x="911" y="61"/>
      <point x="911" y="339" type="curve" smooth="yes"/>
      <point x="911" y="349" type="line" smooth="yes"/>
      <point x="911" y="627"/>
      <point x="826" y="696"/>
      <point x="485" y="696" type="curve" smooth="yes"/>
      <point x="144" y="696"/>
      <point x="59" y="627"/>
      <point x="59" y="349" type="curve" smooth="yes"/>
      <point x="59" y="339" type="line" smooth="yes"/>
      <point x="59" y="61"/>
      <point x="144" y="-8"/>
    </contour>
    <contour>
      <point x="485" y="66" type="curve" smooth="yes"/>
      <point x="302" y="66"/>
      <point x="289" y="83"/>
      <point x="289" y="310" type="curve" smooth="yes"/>
      <point x="289" y="378" type="line" smooth="yes"/>
      <point x="289" y="605"/>
      <point x="302" y="622"/>
      <point x="485" y="622" type="curve" smooth="yes"/>
      <point x="668" y="622"/>
      <point x="681" y="605"/>
      <point x="681" y="378" type="curve" smooth="yes"/>
      <point x="681" y="310" type="line" smooth="yes"/>
      <point x="681" y="83"/>
      <point x="668" y="66"/>
    </contour>
  </outline>
</glyph>
<glyph name="P" format="2">
  <advance width="852"/>
  <unicode hex="0050"/>
  <anchor x="426" y="0" name="bottom"/>
  <anchor x="426" y="688" name="top"/>
  <outline>
    <contour>
      <point x="78" y="0" type="line"/>
      <point x="308" y="0" type="line"/>
      <point x="308" y="645" type="line"/>
      <point x="209" y="614" type="line"/>
      <point x="433" y="614" type="line" smooth="yes"/>
      <point x="588" y="614"/>
      <point x="599" y="606"/>
      <point x="599" y="485" type="curve" smooth="yes"/>
      <point x="599" y="450" type="line" smooth="yes"/>
      <point x="599" y="329"/>
      <point x="588" y="321"/>
      <point x="433" y="321" type="curve" smooth="yes"/>
      <point x="265" y="321" type="line"/>
      <point x="265" y="247" type="line"/>
      <point x="433" y="247" type="line" smooth="yes"/>
      <point x="769" y="247"/>
      <point x="829" y="280"/>
      <point x="829" y="464" type="curve" smooth="yes"/>
      <point x="829" y="471" type="line" smooth="yes"/>
      <point x="829" y="655"/>
      <point x="769" y="688"/>
      <point x="433" y="688" type="curve" smooth="yes"/>
      <point x="78" y="688" type="line"/>
    </contour>
  </outline>
</glyph>
<glyph name="R" format="2">
  <advance width="900"/>
  <unicode hex="0052"/>
  <anchor x="450" y="0" name="bottom"/>
  <anchor x="450" y="688" name="top"/>
  <outline>
    <contour>
      <point x="78" y="0" type="line"/>
      <point x="308" y="0" type="line"/>
      <point x="308" y="645" type="line"/>
      <point x="209" y="614" type="line"/>
      <point x="443" y="614" type="line" smooth="yes"/>
      <point x="598" y="614"/>
      <point x="609" y="607"/>
      <point x="609" y="495" type="curve" smooth="yes"/>
      <point x="609" y="460" type="line" smooth="yes"/>
      <point x="609" y="348"/>
      <point x="598" y="341"/>
      <point x="443" y="341" type="curve" smooth="yes"/>
      <point x="265" y="341" type="line"/>
      <point x="265" y="267" type="line"/>
      <point x="443" y="267" type="line" smooth="yes"/>
      <point x="779" y="267"/>
      <point x="839" y="299"/>
      <point x="839" y="474" type="curve" smooth="yes"/>
      <point x="839" y="481" type="line" smooth="yes"/>
      <point x="839" y="657"/>
      <point x="779" y="688"/>
      <point x="443" y="688" type="curve" smooth="yes"/>
      <point x="78" y="688" type="line"/>
    </contour>
    <contour>
      <point x="604" y="0" type="line"/>
      <point x="849" y="0" type="line"/>
      <point x="702" y="299" type="line"/>
      <point x="467" y="284" type="line"/>
    </contour>
  </outline>
</glyph>
<glyph name="S" format="2">
  <advance width="850"/>
  <unicode hex="0053"/>
  <anchor x="425" y="0" name="bottom"/>
  <anchor x="425" y="688" name="top"/>
  <outline>
    <contour>
      <point x="360" y="-8" type="curve" smooth="yes"/>
      <point x="711" y="-8"/>
      <point x="795" y="32"/>
      <point x="795" y="198" type="curve" smooth="yes"/>
      <point x="795" y="329"/>
      <point x="741" y="370"/>
      <point x="519" y="396" type="curve" smooth="yes"/>
      <point x="363" y="414" type="line" smooth="yes"/>
      <point x="305" y="421"/>
      <point x="285" y="446"/>
      <point x="285" y="505" type="curve" smooth="yes"/>
      <point x="285" y="603"/>
      <point x="318" y="622"/>
      <point x="486" y="622" type="curve" smooth="yes"/>
      <point x="570" y="622"/>
      <point x="682" y="615"/>
      <point x="769" y="605" type="curve"/>
      <point x="769" y="677" type="line"/>
      <point x="674" y="688"/>
      <point x="563" y="696"/>
      <point x="490" y="696" type="curve" smooth="yes"/>
      <point x="139" y="696"/>
      <point x="55" y="657"/>
      <point x="55" y="496" type="curve" smooth="yes"/>
      <point x="55" y="358"/>
      <point x="108" y="314"/>
      <point x="329" y="288" type="curve" smooth="yes"/>
      <point x="485" y="270" type="line" smooth="yes"/>
      <point x="546" y="263"/>
      <point x="565" y="244"/>
      <point x="565" y="190" type="curve" smooth="yes"/>
      <point x="565" y="86"/>
      <point x="531" y="66"/>
      <point x="358" y="66" type="curve" smooth="yes"/>
      <point x="270" y="66"/>
      <point x="152" y="73"/>
      <point x="61" y="83" type="curve"/>
      <point x="61" y="11" type="line"/>
      <point x="163" y="-1"/>
      <point x="281" y="-8"/>
    </contour>
  </outline>
</glyph>
<glyph name="T" format="2">
  <advance width="702"/>
  <unicode hex="0054"/>
  <anchor x="351" y="0" name="bottom"/>
  <anchor x="351" y="344" name="center"/>
  <anchor x="351" y="688" name="top"/>
  <outline>
    <contour>
      <point x="236" y="0" type="line"/>
      <point x="466" y="0" type="line"/>
      <point x="466" y="649" type="line"/>
      <point x="367" y="612" type="line"/>
      <point x="694" y="612" type="line"/>
      <point x="694" y="688" type="line"/>
      <point x="8" y="688" type="line"/>
      <point x="8" y="612" type="line"/>
      <point x="335" y="612" type="line"/>
      <point x="236" y="649" type="line"/>
    </contour>
  </outline>
</glyph>
<glyph name="U" format="2">
  <advance width="810"/>
  <unicode hex="0055"/>
  <anchor x="405" y="0" name="bottom"/>
  <anchor x="729" y="10" name="ogonek"/>
  <anchor x="405" y="688" name="top"/>
  <anchor x="790" y="688" name="topright"/>
  <outline>
    <contour>
      <point x="405" y="-8" type="curve" smooth="yes"/>
      <point x="664" y="-8"/>
      <point x="736" y="65"/>
      <point x="736" y="326" type="curve" smooth="yes"/>
      <point x="736" y="688" type="line"/>
      <point x="654" y="688" type="line"/>
      <point x="654" y="297" type="line" smooth="yes"/>
      <point x="654" y="111"/>
      <point x="621" y="68"/>
      <point x="479" y="68" type="curve" smooth="yes"/>
      <point x="334" y="68"/>
      <point x="304" y="107"/>
      <point x="304" y="297" type="curve" smooth="yes"/>
      <point x="304" y="688" type="line"/>
      <point x="74" y="688" type="line"/>
      <point x="74" y="378" type="line" smooth="yes"/>
      <point x="74" y="76"/>
      <point x="147" y="-8"/>
    </contour>
  </outline>
</glyph>
<glyph name="V" format="2">
  <advance width="722"/>
  <unicode hex="0056"/>
  <outline>
    <contour>
      <point x="254" y="0" type="line"/>
      <point x="478" y="0" type="line"/>
      <point x="714" y="688" type="line"/>
      <point x="627" y="688" type="line"/>
      <point x="434" y="118" type="line"/>
      <point x="241" y="688" type="line"/>
      <point x="8" y="688" type="line"/>
    </contour>
  </outline>
</glyph>
<glyph name="W" format="2">
  <advance width="888"/>
  <unicode hex="0057"/>
  <outline>
    <contour>
      <point x="137" y="0" type="line"/>
      <point x="356" y="0" type="line"/>
      <point x="453" y="490" type="line"/>
      <point x="532" y="0" type="line"/>
      <point x="751" y="0" type="line"/>
      <point x="880" y="688" type="line"/>
      <point x="798" y="688" type="line"/>
      <point x="702" y="173" type="line"/>
      <point x="616" y="688" type="line"/>
      <point x="412" y="688" type="line"/>
      <point x="317" y="223" type="line"/>
      <point x="230" y="688" type="line"/>
      <point x="8" y="688" type="line"/>
    </contour>
  </outline>
</glyph>
<glyph name="X" format="2">
  <advance width="689"/>
  <unicode hex="0058"/>
  <anchor x="463" y="0" name="bottom"/>
  <anchor x="463" y="510" name="top"/>
  <outline>
    <contour>
      <point x="413" y="0" type="line"/>
      <point x="673" y="0" type="line"/>
      <point x="286" y="688" type="line"/>
      <point x="26" y="688" type="line"/>
    </contour>
    <contour>
      <point x="16" y="0" type="line"/>
      <point x="122" y="0" type="line"/>
      <point x="663" y="688" type="line"/>
      <point x="556" y="688" type="line"/>
    </contour>
  </outline>
</glyph>
<glyph name="Y" format="2">
  <advance width="700"/>
  <unicode hex="0059"/>
  <anchor x="753" y="0" name="bottom"/>
  <anchor x="753" y="688" name="top"/>
  <anchor x="460" y="688" name="topleft"/>
  <outline>
    <contour>
      <point x="235" y="0" type="line"/>
      <point x="465" y="0" type="line"/>
      <point x="465" y="300" type="line"/>
      <point x="446" y="231" type="line"/>
      <point x="692" y="688" type="line"/>
      <point x="599" y="688" type="line"/>
      <point x="422" y="354" type="line"/>
      <point x="249" y="688" type="line"/>
      <point x="8" y="688" type="line"/>
      <point x="254" y="231" type="line"/>
      <point x="235" y="300" type="line"/>
    </contour>
  </outline>
</glyph>
<glyph name="Z" format="2">
  <advance width="679"/>
  <unicode hex="005A"/>
  <anchor x="359" y="0" name="bottom"/>
  <anchor x="359" y="344" name="center"/>
  <anchor x="359" y="688" name="top"/>
  <outline>
    <contour>
      <point x="39" y="0" type="line"/>
      <point x="640" y="0" type="line"/>
      <point x="640" y="180" type="line"/>
      <point x="185" y="180" type="line"/>
      <point x="635" y="527" type="line"/>
      <point x="635" y="688" type="line"/>
      <point x="49" y="688" type="line"/>
      <point x="49" y="508" type="line"/>
      <point x="489" y="508" type="line"/>
      <point x="39" y="161" type="line"/>
    </contour>
  </outline>
</glyph>
<glyph name="a" format="2">
  <advance width="838"/>
  <unicode hex="0061"/>
  <anchor x="428" y="0" name="bottom"/>
  <anchor x="662" y="10" name="ogonek"/>
  <anchor x="428" y="510" name="top"/>
  <outline>
    <contour>
      <point x="296" y="-8" type="curve" smooth="yes"/>
      <point x="426" y="-8"/>
      <point x="498" y="19"/>
      <point x="532" y="78" type="curve"/>
      <point x="536" y="78" type="line"/>
      <point x="546" y="0" type="line"/>
      <point x="764" y="0" type="line"/>
      <point x="764" y="259" type="line" smooth="yes"/>
      <point x="764" y="479"/>
      <point x="702" y="518"/>
      <point x="348" y="518" type="curve" smooth="yes"/>
      <point x="263" y="518"/>
      <point x="177" y="513"/>
      <point x="76" y="503" type="curve"/>
      <point x="76" y="435" type="line"/>
      <point x="160" y="444"/>
      <point x="245" y="448"/>
      <point x="348" y="448" type="curve" smooth="yes"/>
      <point x="522" y="448"/>
      <point x="534" y="436"/>
      <point x="534" y="282" type="curve" smooth="yes"/>
      <point x="534" y="278" type="line" smooth="yes"/>
      <point x="533" y="100"/>
      <point x="508" y="62"/>
      <point x="392" y="62" type="curve" smooth="yes"/>
      <point x="297" y="62"/>
      <point x="280" y="73"/>
      <point x="280" y="139" type="curve" smooth="yes"/>
      <point x="280" y="201"/>
      <point x="298" y="215"/>
      <point x="372" y="215" type="curve" smooth="yes"/>
      <point x="588" y="215" type="line"/>
      <point x="588" y="335" type="line"/>
      <point x="351" y="335" type="line" smooth="yes"/>
      <point x="128" y="335"/>
      <point x="50" y="289"/>
      <point x="50" y="157" type="curve" smooth="yes"/>
      <point x="50" y="38"/>
      <point x="118" y="-8"/>
    </contour>
  </outline>
</glyph>
<glyph name="b" format="2">
  <advance width="878"/>
  <unicode hex="0062"/>
  <anchor x="436" y="0" name="bottom"/>
  <anchor x="281" y="594" name="center"/>
  <anchor x="436" y="510" name="top"/>
  <outline>
    <contour>
      <point x="545" y="-8" type="curve" smooth="yes"/>
      <point x="768" y="-8"/>
      <point x="823" y="43"/>
      <point x="823" y="251" type="curve" smooth="yes"/>
      <point x="823" y="259" type="line" smooth="yes"/>
      <point x="823" y="467"/>
      <point x="768" y="518"/>
      <point x="545" y="518" type="curve" smooth="yes"/>
      <point x="415" y="518"/>
      <point x="344" y="494"/>
      <point x="312" y="437" type="curve"/>
      <point x="308" y="437" type="line"/>
      <point x="308" y="743" type="line"/>
      <point x="78" y="743" type="line"/>
      <point x="78" y="0" type="line"/>
      <point x="298" y="0" type="line"/>
      <point x="308" y="73" type="line"/>
      <point x="312" y="73" type="line"/>
      <point x="344" y="16"/>
      <point x="415" y="-8"/>
    </contour>
    <contour>
      <point x="469" y="62" type="curve" smooth="yes"/>
      <point x="335" y="62"/>
      <point x="308" y="95"/>
      <point x="308" y="244" type="curve" smooth="yes"/>
      <point x="308" y="266" type="line" smooth="yes"/>
      <point x="308" y="415"/>
      <point x="335" y="448"/>
      <point x="469" y="448" type="curve" smooth="yes"/>
      <point x="573" y="448"/>
      <point x="593" y="425"/>
      <point x="593" y="307" type="curve" smooth="yes"/>
      <point x="593" y="203" type="line" smooth="yes"/>
      <point x="593" y="85"/>
      <point x="573" y="62"/>
    </contour>
  </outline>
</glyph>
<glyph name="c" format="2">
  <advance width="632"/>
  <unicode hex="0063"/>
  <anchor x="308" y="0" name="bottom"/>
  <anchor x="308" y="510" name="top"/>
  <outline>
    <contour>
      <point x="440" y="-8" type="curve" smooth="yes"/>
      <point x="496" y="-8"/>
      <point x="561" y="-2"/>
      <point x="599" y="7" type="curve"/>
      <point x="599" y="75" type="line"/>
      <point x="557" y="67"/>
      <point x="489" y="62"/>
      <point x="435" y="62" type="curve" smooth="yes"/>
      <point x="295" y="62"/>
      <point x="285" y="74"/>
      <point x="285" y="231" type="curve" smooth="yes"/>
      <point x="285" y="279" type="line" smooth="yes"/>
      <point x="285" y="436"/>
      <point x="295" y="448"/>
      <point x="435" y="448" type="curve" smooth="yes"/>
      <point x="487" y="448"/>
      <point x="553" y="443"/>
      <point x="594" y="435" type="curve"/>
      <point x="594" y="503" type="line"/>
      <point x="557" y="512"/>
      <point x="494" y="518"/>
      <point x="440" y="518" type="curve" smooth="yes"/>
      <point x="113" y="518"/>
      <point x="55" y="479"/>
      <point x="55" y="259" type="curve" smooth="yes"/>
      <point x="55" y="251" type="line" smooth="yes"/>
      <point x="55" y="31"/>
      <point x="113" y="-8"/>
    </contour>
  </outline>
</glyph>
<glyph name="e" format="2">
  <advance width="824"/>
  <unicode hex="0065"/>
  <anchor x="416" y="0" name="bottom"/>
  <anchor x="642" y="10" name="ogonek"/>
  <anchor x="416" y="510" name="top"/>
  <outline>
    <contour>
      <point x="422" y="-8" type="curve" smooth="yes"/>
      <point x="545" y="-8"/>
      <point x="691" y="0"/>
      <point x="771" y="12" type="curve"/>
      <point x="771" y="80" type="line"/>
      <point x="697" y="69"/>
      <point x="583" y="62"/>
      <point x="496" y="62" type="curve" smooth="yes"/>
      <point x="299" y="62"/>
      <point x="285" y="74"/>
      <point x="285" y="231" type="curve" smooth="yes"/>
      <point x="285" y="279" type="line" smooth="yes"/>
      <point x="285" y="436"/>
      <point x="294" y="448"/>
      <point x="422" y="448" type="curve" smooth="yes"/>
      <point x="545" y="448"/>
      <point x="554" y="436"/>
      <point x="554" y="279" type="curve" smooth="yes"/>
      <point x="554" y="251" type="line"/>
      <point x="657" y="309" type="line"/>
      <point x="243" y="309" type="line"/>
      <point x="243" y="189" type="line"/>
      <point x="774" y="189" type="line"/>
      <point x="774" y="259" type="line" smooth="yes"/>
      <point x="774" y="467"/>
      <point x="705" y="518"/>
      <point x="422" y="518" type="curve" smooth="yes"/>
      <point x="127" y="518"/>
      <point x="55" y="467"/>
      <point x="55" y="259" type="curve" smooth="yes"/>
      <point x="55" y="251" type="line" smooth="yes"/>
      <point x="55" y="31"/>
      <point x="110" y="-8"/>
    </contour>
  </outline>
</glyph>
<glyph name="f" format="2">
  <advance width="521"/>
  <unicode hex="0066"/>
  <anchor x="268" y="0" name="bottom"/>
  <anchor x="268" y="743" name="top"/>
  <outline>
    <contour>
      <point x="137" y="0" type="line"/>
      <point x="367" y="0" type="line"/>
      <point x="367" y="598" type="line" smooth="yes"/>
      <point x="367" y="661"/>
      <point x="389" y="673"/>
      <point x="517" y="673" type="curve"/>
      <point x="517" y="743" type="line"/>
      <point x="220" y="743"/>
      <point x="137" y="710"/>
      <point x="137" y="591" type="curve" smooth="yes"/>
    </contour>
    <contour>
      <point x="16" y="440" type="line"/>
      <point x="228" y="440" type="line"/>
      <point x="228" y="510" type="line"/>
      <point x="16" y="510" type="line"/>
    </contour>
    <contour>
      <point x="277" y="440" type="line"/>
      <point x="517" y="440" type="line"/>
      <point x="517" y="510" type="line"/>
      <point x="277" y="510" type="line"/>
    </contour>
  </outline>
</glyph>
<glyph name="g" format="2">
  <advance width="878"/>
  <unicode hex="0067"/>
  <anchor x="697" y="-200" name="bottom"/>
  <anchor x="597" y="-84" name="center"/>
  <anchor x="697" y="510" name="top"/>
  <outline>
    <contour>
      <point x="384" y="-208" type="curve" smooth="yes"/>
      <point x="738" y="-208"/>
      <point x="800" y="-169"/>
      <point x="800" y="51" type="curve" smooth="yes"/>
      <point x="800" y="510" type="line"/>
      <point x="580" y="510" type="line"/>
      <point x="570" y="437" type="line"/>
      <point x="566" y="437" type="line"/>
      <point x="534" y="494"/>
      <point x="464" y="518"/>
      <point x="333" y="518" type="curve" smooth="yes"/>
      <point x="110" y="518"/>
      <point x="55" y="467"/>
      <point x="55" y="259" type="curve" smooth="yes"/>
      <point x="55" y="251" type="line" smooth="yes"/>
      <point x="55" y="43"/>
      <point x="110" y="-8"/>
      <point x="333" y="-8" type="curve" smooth="yes"/>
      <point x="464" y="-8"/>
      <point x="534" y="16"/>
      <point x="566" y="73" type="curve"/>
      <point x="570" y="73" type="line"/>
      <point x="570" y="28" type="line" smooth="yes"/>
      <point x="570" y="-126"/>
      <point x="558" y="-138"/>
      <point x="384" y="-138" type="curve" smooth="yes"/>
      <point x="281" y="-138"/>
      <point x="196" y="-134"/>
      <point x="112" y="-125" type="curve"/>
      <point x="112" y="-193" type="line"/>
      <point x="213" y="-203"/>
      <point x="299" y="-208"/>
    </contour>
    <contour>
      <point x="409" y="62" type="curve" smooth="yes"/>
      <point x="305" y="62"/>
      <point x="285" y="85"/>
      <point x="285" y="203" type="curve" smooth="yes"/>
      <point x="285" y="307" type="line" smooth="yes"/>
      <point x="285" y="425"/>
      <point x="305" y="448"/>
      <point x="409" y="448" type="curve" smooth="yes"/>
      <point x="542" y="448"/>
      <point x="570" y="416"/>
      <point x="570" y="266" type="curve" smooth="yes"/>
      <point x="570" y="244" type="line" smooth="yes"/>
      <point x="570" y="94"/>
      <point x="542" y="62"/>
    </contour>
  </outline>
</glyph>
<glyph name="h" format="2">
  <advance width="876"/>
  <unicode hex="0068"/>
  <anchor x="438" y="0" name="bottom"/>
  <anchor x="438" y="510" name="top"/>
  <outline>
    <contour>
      <point x="78" y="0" type="line"/>
      <point x="308" y="0" type="line"/>
      <point x="308" y="227" type="line" smooth="yes"/>
      <point x="308" y="409"/>
      <point x="335" y="448"/>
      <point x="460" y="448" type="curve" smooth="yes"/>
      <point x="553" y="448"/>
      <point x="572" y="416"/>
      <point x="572" y="265" type="curve" smooth="yes"/>
      <point x="572" y="0" type="line"/>
      <point x="802" y="0" type="line"/>
      <point x="802" y="299" type="line" smooth="yes"/>
      <point x="802" y="467"/>
      <point x="745" y="518"/>
      <point x="556" y="518" type="curve" smooth="yes"/>
      <point x="419" y="518"/>
      <point x="343" y="491"/>
      <point x="308" y="432" type="curve"/>
      <point x="308" y="743" type="line"/>
      <point x="78" y="743" type="line"/>
    </contour>
  </outline>
</glyph>
<glyph name="i" format="2">
  <advance width="386"/>
  <unicode hex="0069"/>
  <anchor x="193" y="0" name="bottom"/>
  <anchor x="308" y="0" name="ogonek"/>
  <anchor x="193" y="828" name="top"/>
  <outline>
    <contour>
      <point x="78" y="0" type="line"/>
      <point x="308" y="0" type="line"/>
      <point x="308" y="510" type="line"/>
      <point x="78" y="510" type="line"/>
    </contour>
    <contour>
      <point x="73" y="588" type="line"/>
      <point x="313" y="588" type="line"/>
      <point x="313" y="788" type="line"/>
      <point x="73" y="788" type="line"/>
    </contour>
  </outline>
</glyph>
<glyph name="j" format="2">
  <advance width="386"/>
  <unicode hex="006A"/>
  <anchor x="193" y="-200" name="bottom"/>
  <anchor x="193" y="828" name="top"/>
  <outline>
    <contour>
      <point x="308" y="510" type="line"/>
      <point x="78" y="510" type="line"/>
      <point x="78" y="-55" type="line" smooth="yes"/>
      <point x="78" y="-118"/>
      <point x="53" y="-130"/>
      <point x="-90" y="-130" type="curve"/>
      <point x="-90" y="-200" type="line"/>
      <point x="221" y="-200"/>
      <point x="308" y="-167"/>
      <point x="308" y="-48" type="curve" smooth="yes"/>
    </contour>
    <contour>
      <point x="73" y="588" type="line"/>
      <point x="313" y="588" type="line"/>
      <point x="313" y="788" type="line"/>
      <point x="73" y="788" type="line"/>
    </contour>
  </outline>
</glyph>
<glyph name="k" format="2">
  <advance width="787"/>
  <unicode hex="006B"/>
  <anchor x="550" y="0" name="bottom"/>
  <anchor x="550" y="510" name="top"/>
  <outline>
    <contour>
      <point x="308" y="225" type="line"/>
      <point x="359" y="225" type="line"/>
      <point x="510" y="0" type="line"/>
      <point x="775" y="0" type="line"/>
      <point x="600" y="260" type="line"/>
      <point x="771" y="510" type="line"/>
      <point x="674" y="510" type="line"/>
      <point x="527" y="295" type="line"/>
      <point x="308" y="295" type="line"/>
    </contour>
    <contour>
      <point x="78" y="0" type="line"/>
      <point x="308" y="0" type="line"/>
      <point x="308" y="743" type="line"/>
      <point x="78" y="743" type="line"/>
    </contour>
  </outline>
</glyph>
<glyph name="l" format="2">
  <advance width="386"/>
  <unicode hex="006C"/>
  <anchor x="193" y="0" name="bottom"/>
  <anchor x="193" y="372" name="center"/>
  <anchor x="193" y="743" name="top"/>
  <anchor x="308" y="743" name="topright"/>
  <outline>
    <contour>
      <point x="78" y="0" type="line"/>
      <point x="308" y="0" type="line"/>
      <point x="308" y="743" type="line"/>
      <point x="78" y="743" type="line"/>
    </contour>
  </outline>
</glyph>
<glyph name="m" format="2">
  <advance width="1370"/>
  <unicode hex="006D"/>
  <anchor x="438" y="0" name="bottom"/>
  <anchor x="438" y="510" name="top"/>
  <outline>
    <contour>
      <point x="78" y="0" type="line"/>
      <point x="308" y="0" type="line"/>
      <point x="308" y="223" type="line" smooth="yes"/>
      <point x="308" y="407"/>
      <point x="337" y="448"/>
      <point x="460" y="448" type="curve" smooth="yes"/>
      <point x="554" y="448"/>
      <point x="572" y="420"/>
      <point x="572" y="264" type="curve" smooth="yes"/>
      <point x="572" y="0" type="line"/>
      <point x="802" y="0" type="line"/>
      <point x="802" y="223" type="line" smooth="yes"/>
      <point x="802" y="407"/>
      <point x="831" y="448"/>
      <point x="954" y="448" type="curve" smooth="yes"/>
      <point x="1048" y="448"/>
      <point x="1066" y="420"/>
      <point x="1066" y="264" type="curve" smooth="yes"/>
      <point x="1066" y="0" type="line"/>
      <point x="1296" y="0" type="line"/>
      <point x="1296" y="299" type="line" smooth="yes"/>
      <point x="1296" y="467"/>
      <point x="1239" y="518"/>
      <point x="1050" y="518" type="curve" smooth="yes"/>
      <point x="909" y="518"/>
      <point x="829" y="492"/>
      <point x="785" y="437" type="curve"/>
      <point x="781" y="437" type="line"/>
      <point x="748" y="497"/>
      <point x="680" y="518"/>
      <point x="556" y="518" type="curve" smooth="yes"/>
      <point x="420" y="518"/>
      <point x="345" y="493"/>
      <point x="310" y="437" type="curve"/>
      <point x="306" y="437" type="line"/>
      <point x="296" y="510" type="line"/>
      <point x="78" y="510" type="line"/>
    </contour>
  </outline>
</glyph>
<glyph name="n" format="2">
  <advance width="876"/>
  <unicode hex="006E"/>
  <anchor x="438" y="0" name="bottom"/>
  <anchor x="438" y="510" name="top"/>
  <outline>
    <contour>
      <point x="78" y="0" type="line"/>
      <point x="308" y="0" type="line"/>
      <point x="308" y="227" type="line" smooth="yes"/>
      <point x="308" y="409"/>
      <point x="335" y="448"/>
      <point x="460" y="448" type="curve" smooth="yes"/>
      <point x="553" y="448"/>
      <point x="572" y="416"/>
      <point x="572" y="265" type="curve" smooth="yes"/>
      <point x="572" y="0" type="line"/>
      <point x="802" y="0" type="line"/>
      <point x="802" y="299" type="line" smooth="yes"/>
      <point x="802" y="467"/>
      <point x="745" y="518"/>
      <point x="556" y="518" type="curve" smooth="yes"/>
      <point x="420" y="518"/>
      <point x="345" y="491"/>
      <point x="310" y="432" type="curve"/>
      <point x="306" y="432" type="line"/>
      <point x="296" y="510" type="line"/>
      <point x="78" y="510" type="line"/>
    </contour>
  </outline>
</glyph>
<glyph name="p" format="2">
  <advance width="878"/>
  <unicode hex="0070"/>
  <anchor x="447" y="0" name="bottom"/>
  <anchor x="281" y="-84" name="center"/>
  <anchor x="447" y="510" name="top"/>
  <outline>
    <contour>
      <point x="78" y="-233" type="line"/>
      <point x="308" y="-233" type="line"/>
      <point x="308" y="73" type="line"/>
      <point x="312" y="73" type="line"/>
      <point x="344" y="16"/>
      <point x="415" y="-8"/>
      <point x="545" y="-8" type="curve" smooth="yes"/>
      <point x="768" y="-8"/>
      <point x="823" y="43"/>
      <point x="823" y="251" type="curve" smooth="yes"/>
      <point x="823" y="259" type="line" smooth="yes"/>
      <point x="823" y="467"/>
      <point x="768" y="518"/>
      <point x="545" y="518" type="curve" smooth="yes"/>
      <point x="415" y="518"/>
      <point x="344" y="494"/>
      <point x="312" y="437" type="curve"/>
      <point x="308" y="437" type="line"/>
      <point x="298" y="510" type="line"/>
      <point x="78" y="510" type="line"/>
    </contour>
    <contour>
      <point x="469" y="62" type="curve" smooth="yes"/>
      <point x="335" y="62"/>
      <point x="308" y="95"/>
      <point x="308" y="244" type="curve" smooth="yes"/>
      <point x="308" y="266" type="line" smooth="yes"/>
      <point x="308" y="415"/>
      <point x="335" y="448"/>
      <point x="469" y="448" type="curve" smooth="yes"/>
      <point x="573" y="448"/>
      <point x="593" y="425"/>
      <point x="593" y="307" type="curve" smooth="yes"/>
      <point x="593" y="203" type="line" smooth="yes"/>
      <point x="593" y="85"/>
      <point x="573" y="62"/>
    </contour>
  </outline>
</glyph>
<glyph name="q" format="2">
  <advance width="878"/>
  <unicode hex="0071"/>
  <anchor x="310" y="0" name="bottom"/>
  <anchor x="597" y="-84" name="center"/>
  <anchor x="310" y="510" name="top"/>
  <outline>
    <contour>
      <point x="570" y="-233" type="line"/>
      <point x="800" y="-233" type="line"/>
      <point x="800" y="510" type="line"/>
      <point x="580" y="510" type="line"/>
      <point x="570" y="437" type="line"/>
      <point x="566" y="437" type="line"/>
      <point x="534" y="494"/>
      <point x="463" y="518"/>
      <point x="333" y="518" type="curve" smooth="yes"/>
      <point x="110" y="518"/>
      <point x="55" y="467"/>
      <point x="55" y="259" type="curve" smooth="yes"/>
      <point x="55" y="251" type="line" smooth="yes"/>
      <point x="55" y="43"/>
      <point x="110" y="-8"/>
      <point x="333" y="-8" type="curve" smooth="yes"/>
      <point x="463" y="-8"/>
      <point x="534" y="16"/>
      <point x="566" y="73" type="curve"/>
      <point x="570" y="73" type="line"/>
    </contour>
    <contour>
      <point x="409" y="62" type="curve" smooth="yes"/>
      <point x="305" y="62"/>
      <point x="285" y="85"/>
      <point x="285" y="203" type="curve" smooth="yes"/>
      <point x="285" y="307" type="line" smooth="yes"/>
      <point x="285" y="425"/>
      <point x="305" y="448"/>
      <point x="409" y="448" type="curve" smooth="yes"/>
      <point x="543" y="448"/>
      <point x="570" y="415"/>
      <point x="570" y="266" type="curve" smooth="yes"/>
      <point x="570" y="244" type="line" smooth="yes"/>
      <point x="570" y="95"/>
      <point x="543" y="62"/>
    </contour>
  </outline>
</glyph>
<glyph name="r" format="2">
  <advance width="578"/>
  <unicode hex="0072"/>
  <anchor x="289" y="0" name="bottom"/>
  <anchor x="289" y="510" name="top"/>
  <outline>
    <contour>
      <point x="78" y="0" type="line"/>
      <point x="308" y="0" type="line"/>
      <point x="308" y="236" type="line" smooth="yes"/>
      <point x="308" y="401"/>
      <point x="340" y="448"/>
      <point x="483" y="448" type="curve" smooth="yes"/>
      <point x="556" y="448" type="line"/>
      <point x="556" y="518" type="line"/>
      <point x="420" y="518"/>
      <point x="345" y="493"/>
      <point x="310" y="437" type="curve"/>
      <point x="306" y="437" type="line"/>
      <point x="296" y="510" type="line"/>
      <point x="78" y="510" type="line"/>
    </contour>
  </outline>
</glyph>
<glyph name="s" format="2">
  <advance width="716"/>
  <unicode hex="0073"/>
  <anchor x="358" y="0" name="bottom"/>
  <anchor x="358" y="510" name="top"/>
  <outline>
    <contour>
      <point x="320" y="-8" type="curve" smooth="yes"/>
      <point x="591" y="-8"/>
      <point x="665" y="29"/>
      <point x="665" y="164" type="curve" smooth="yes"/>
      <point x="665" y="247"/>
      <point x="620" y="287"/>
      <point x="513" y="300" type="curve" smooth="yes"/>
      <point x="353" y="319" type="line" smooth="yes"/>
      <point x="292" y="327"/>
      <point x="281" y="336"/>
      <point x="281" y="381" type="curve" smooth="yes"/>
      <point x="281" y="436"/>
      <point x="307" y="448"/>
      <point x="433" y="448" type="curve" smooth="yes"/>
      <point x="506" y="448"/>
      <point x="588" y="440"/>
      <point x="640" y="429" type="curve"/>
      <point x="640" y="498" type="line"/>
      <point x="572" y="510"/>
      <point x="463" y="518"/>
      <point x="368" y="518" type="curve" smooth="yes"/>
      <point x="119" y="518"/>
      <point x="51" y="481"/>
      <point x="51" y="348" type="curve" smooth="yes"/>
      <point x="51" y="270"/>
      <point x="98" y="228"/>
      <point x="200" y="216" type="curve" smooth="yes"/>
      <point x="363" y="197" type="line" smooth="yes"/>
      <point x="424" y="189"/>
      <point x="435" y="179"/>
      <point x="435" y="133" type="curve" smooth="yes"/>
      <point x="435" y="74"/>
      <point x="408" y="62"/>
      <point x="278" y="62" type="curve" smooth="yes"/>
      <point x="200" y="62"/>
      <point x="114" y="69"/>
      <point x="57" y="81" type="curve"/>
      <point x="57" y="13" type="line"/>
      <point x="111" y="0"/>
      <point x="212" y="-8"/>
    </contour>
  </outline>
</glyph>
<glyph name="u" format="2">
  <advance width="876"/>
  <unicode hex="0075"/>
  <anchor x="438" y="0" name="bottom"/>
  <anchor x="788" y="10" name="ogonek"/>
  <anchor x="438" y="510" name="top"/>
  <anchor x="856" y="510" name="topright"/>
  <outline>
    <contour>
      <point x="798" y="510" type="line"/>
      <point x="568" y="510" type="line"/>
      <point x="568" y="283" type="line" smooth="yes"/>
      <point x="568" y="101"/>
      <point x="541" y="62"/>
      <point x="416" y="62" type="curve" smooth="yes"/>
      <point x="323" y="62"/>
      <point x="304" y="94"/>
      <point x="304" y="245" type="curve" smooth="yes"/>
      <point x="304" y="510" type="line"/>
      <point x="74" y="510" type="line"/>
      <point x="74" y="211" type="line" smooth="yes"/>
      <point x="74" y="43"/>
      <point x="131" y="-8"/>
      <point x="320" y="-8" type="curve" smooth="yes"/>
      <point x="456" y="-8"/>
      <point x="531" y="19"/>
      <point x="566" y="78" type="curve"/>
      <point x="570" y="78" type="line"/>
      <point x="580" y="0" type="line"/>
      <point x="798" y="0" type="line"/>
    </contour>
  </outline>
</glyph>
<glyph name="v" format="2">
  <advance width="640"/>
  <unicode hex="0076"/>
  <anchor x="403" y="0" name="bottom"/>
  <anchor x="403" y="510" name="top"/>
  <outline>
    <contour>
      <point x="209" y="0" type="line"/>
      <point x="428" y="0" type="line"/>
      <point x="620" y="510" type="line"/>
      <point x="535" y="510" type="line"/>
      <point x="389" y="105" type="line"/>
      <point x="385" y="105" type="line"/>
      <point x="253" y="510" type="line"/>
      <point x="20" y="510" type="line"/>
    </contour>
  </outline>
</glyph>
<glyph name="w" format="2">
  <advance width="829"/>
  <unicode hex="0077"/>
  <anchor x="390" y="0" name="bottom"/>
  <anchor x="390" y="510" name="top"/>
  <outline>
    <contour>
      <point x="121" y="0" type="line"/>
      <point x="334" y="0" type="line"/>
      <point x="423" y="380" type="line"/>
      <point x="496" y="0" type="line"/>
      <point x="709" y="0" type="line"/>
      <point x="809" y="510" type="line"/>
      <point x="730" y="510" type="line"/>
      <point x="656" y="147" type="line"/>
      <point x="652" y="147" type="line"/>
      <point x="587" y="510" type="line"/>
      <point x="387" y="510" type="line"/>
      <point x="302" y="147" type="line"/>
      <point x="298" y="147" type="line"/>
      <point x="234" y="510" type="line"/>
      <point x="20" y="510" type="line"/>
    </contour>
  </outline>
</glyph>
<glyph name="x" format="2">
  <advance width="575"/>
  <unicode hex="0078"/>
  <anchor x="346" y="0" name="bottom"/>
  <anchor x="346" y="510" name="top"/>
  <outline>
    <contour>
      <point x="450" y="0" type="line"/>
      <point x="559" y="0" type="line"/>
      <point x="125" y="510" type="line"/>
      <point x="16" y="510" type="line"/>
    </contour>
    <contour>
      <point x="16" y="0" type="line"/>
      <point x="269" y="0" type="line"/>
      <point x="559" y="510" type="line"/>
      <point x="306" y="510" type="line"/>
    </contour>
  </outline>
</glyph>
<glyph name="y" format="2">
  <advance width="876"/>
  <unicode hex="0079"/>
  <anchor x="438" y="0" name="bottom"/>
  <anchor x="438" y="510" name="top"/>
  <outline>
    <contour>
      <point x="442" y="-208" type="curve" smooth="yes"/>
      <point x="735" y="-208"/>
      <point x="798" y="-148"/>
      <point x="798" y="87" type="curve" smooth="yes"/>
      <point x="798" y="510" type="line"/>
      <point x="568" y="510" type="line"/>
      <point x="568" y="244" type="line" smooth="yes"/>
      <point x="568" y="94"/>
      <point x="552" y="62"/>
      <point x="419" y="62" type="curve" smooth="yes"/>
      <point x="315" y="62"/>
      <point x="304" y="85"/>
      <point x="304" y="203" type="curve" smooth="yes"/>
      <point x="304" y="510" type="line"/>
      <point x="74" y="510" type="line"/>
      <point x="74" y="251" type="line" smooth="yes"/>
      <point x="74" y="43"/>
      <point x="118" y="-8"/>
      <point x="341" y="-8" type="curve" smooth="yes"/>
      <point x="466" y="-8"/>
      <point x="533" y="16"/>
      <point x="564" y="73" type="curve"/>
      <point x="568" y="73" type="line"/>
      <point x="568" y="31" type="line" smooth="yes"/>
      <point x="568" y="-126"/>
      <point x="563" y="-138"/>
      <point x="366" y="-138" type="curve" smooth="yes"/>
      <point x="276" y="-138"/>
      <point x="176" y="-131"/>
      <point x="106" y="-120" type="curve"/>
      <point x="106" y="-188" type="line"/>
      <point x="183" y="-200"/>
      <point x="317" y="-208"/>
    </contour>
  </outline>
</glyph>
<glyph name="z" format="2">
  <advance width="574"/>
  <unicode hex="007A"/>
  <anchor x="425" y="0" name="bottom"/>
  <anchor x="419" y="255" name="center"/>
  <anchor x="425" y="510" name="top"/>
  <outline>
    <contour>
      <point x="20" y="0" type="line"/>
      <point x="554" y="0" type="line"/>
      <point x="554" y="180" type="line"/>
      <point x="229" y="180" type="line"/>
      <point x="229" y="184" type="line"/>
      <point x="550" y="348" type="line"/>
      <point x="550" y="510" type="line"/>
      <point x="32" y="510" type="line"/>
      <point x="32" y="330" type="line"/>
      <point x="340" y="330" type="line"/>
      <point x="340" y="326" type="line"/>
      <point x="20" y="162" type="line"/>
    </contour>
  </outline>
</glyph>
<glyph name="bar" format="2">
  <advance width="448"/>
  <unicode hex="007C"/>
  <outline>
    <contour>
      <point x="109" y="-161" type="line"/>
      <point x="339" y="-161" type="line"/>
      <point x="339" y="743" type="line"/>
      <point x="109" y="743" type="line"/>
    </contour>
  </outline>
</glyph>
<glyph name="sterling" format="2">
  <advance width="589.69565"/>
  <unicode hex="00A3"/>
  <outline>
    <contour>
      <point x="53.478" y="0" type="line"/>
      <point x="542.957" y="0" type="line"/>
      <point x="542.957" y="74.217" type="line"/>
      <point x="214.022" y="74.217" type="line"/>
      <point x="214.022" y="319.261" type="line"/>
      <point x="455.957" y="319.261" type="line"/>
      <point x="455.957" y="392.391" type="line"/>
      <point x="214.022" y="392.391" type="line"/>
      <point x="214.022" y="420.652" type="line" smooth="yes"/>
      <point x="214.022" y="587.478"/>
      <point x="241.783" y="621.783"/>
      <point x="399.543" y="621.783" type="curve" smooth="yes"/>
      <point x="437.413" y="621.783"/>
      <point x="490.783" y="617.326"/>
      <point x="530.957" y="611.87" type="curve"/>
      <point x="530.957" y="681.37" type="line"/>
      <point x="497.239" y="689.913"/>
      <point x="434.978" y="696"/>
      <point x="382.804" y="696" type="curve" smooth="yes"/>
      <point x="181.304" y="696"/>
      <point x="128.022" y="634.674"/>
      <point x="128.022" y="420.652" type="curve" smooth="yes"/>
      <point x="128.022" y="392.391" type="line"/>
      <point x="53.478" y="392.391" type="line"/>
      <point x="53.478" y="319.261" type="line"/>
      <point x="127.478" y="319.261" type="line"/>
      <point x="127.478" y="74.217" type="line"/>
      <point x="53.478" y="74.217" type="line"/>
    </contour>
  </outline>
</glyph>
<glyph name="idotless" format="2">
  <advance width="386"/>
  <unicode hex="0131"/>
  <anchor x="193" y="0" name="bottom"/>
  <anchor x="308" y="0" name="ogonek"/>
  <anchor x="193" y="510" name="top"/>
  <outline>
    <contour>
      <point x="78" y="0" type="line"/>
      <point x="308" y="0" type="line"/>
      <point x="308" y="510" type="line"/>
      <point x="78" y="510" type="line"/>
    </contour>
  </outline>
</glyph>
<glyph name="tbar" format="2">
  <advance width="358.34783"/>
  <unicode hex="0167"/>
  <outline>
    <contour>
      <point x="27.478" y="217.413" type="line"/>
      <point x="333.239" y="217.413" type="line"/>
      <point x="333.239" y="285.283" type="line"/>
      <point x="27.478" y="285.283" type="line"/>
    </contour>
    <component base="t"/>
  </outline>
</glyph>
<glyph name="jdotless" format="2">
  <advance width="386"/>
  <unicode hex="0237"/>
  <anchor x="193" y="-200" name="bottom"/>
  <anchor x="193" y="510" name="top"/>
  <outline>
    <contour>
      <point x="308" y="510" type="line"/>
      <point x="78" y="510" type="line"/>
      <point x="78" y="-55" type="line" smooth="yes"/>
      <point x="78" y="-118"/>
      <point x="53" y="-130"/>
      <point x="-90" y="-130" type="curve"/>
      <point x="-90" y="-200" type="line"/>
      <point x="221" y="-200"/>
      <point x="308" y="-167"/>
      <point x="308" y="-48" type="curve" smooth="yes"/>
    </contour>
  </outline>
</glyph>
<glyph name="ring" format="2">
  <advance width="254.34783"/>
  <unicode hex="02DA"/>
  <outline>
    <contour>
      <point x="126.13" y="580.587" type="curve" smooth="yes"/>
      <point x="247.804" y="580.587"/>
      <point x="254.348" y="610.109"/>
      <point x="254.348" y="685" type="curve" smooth="yes"/>
      <point x="254.348" y="759.348"/>
      <point x="247.804" y="790.413"/>
      <point x="126.13" y="790.413" type="curve" smooth="yes"/>
      <point x="6" y="790.413"/>
      <point x="0" y="759.348"/>
      <point x="0" y="685" type="curve" smooth="yes"/>
      <point x="0" y="610.109"/>
      <point x="6" y="580.587"/>
    </contour>
    <contour>
      <point x="126.13" y="623.261" type="curve" smooth="yes"/>
      <point x="53.109" y="623.261"/>
      <point x="52.109" y="636.717"/>
      <point x="52.109" y="685" type="curve" smooth="yes"/>
      <point x="52.109" y="733.739"/>
      <point x="53.109" y="747.652"/>
      <point x="126.13" y="747.652" type="curve" smooth="yes"/>
      <point x="201.239" y="747.652"/>
      <point x="201.696" y="733.739"/>
      <point x="201.696" y="685" type="curve" smooth="yes"/>
      <point x="201.696" y="636.717"/>
      <point x="201.239" y="623.261"/>
    </contour>
  </outline>
</glyph>
<glyph name="gravecomb" format="2">
  <advance width="188.86956"/>
  <unicode hex="0300"/>
  <anchor x="130.543" y="510" name="_top"/>
  <anchor x="132.543" y="683" name="top"/>
  <outline>
    <contour>
      <point x="128.717" y="594.587" type="line"/>
      <point x="188.87" y="594.587" type="line"/>
      <point x="188.87" y="599.587" type="line"/>
      <point x="87.848" y="734.848" type="line"/>
      <point x="0" y="734.848" type="line"/>
      <point x="0" y="729.848" type="line"/>
    </contour>
  </outline>
</glyph>
<glyph name="dotaccentcomb" format="2">
  <advance width="280"/>
  <unicode hex="0307"/>
  <anchor x="140" y="510" name="_top"/>
  <anchor x="140" y="828" name="top"/>
  <outline>
    <contour>
      <point x="20" y="588" type="line"/>
      <point x="260" y="588" type="line"/>
      <point x="260" y="788" type="line"/>
      <point x="20" y="788" type="line"/>
    </contour>
  </outline>
</glyph>
<glyph name="brevebelowcomb" format="2">
  <advance width="275.47826"/>
  <unicode hex="032E"/>
  <anchor x="138.239" y="0" name="_bottom"/>
  <anchor x="138.239" y="-206.261" name="bottom"/>
  <outline>
    <contour>
      <point x="136.696" y="-219.413" type="curve" smooth="yes"/>
      <point x="267.413" y="-219.413"/>
      <point x="275.478" y="-159.326"/>
      <point x="275.478" y="-75.152" type="curve"/>
      <point x="222.196" y="-75.152" type="line"/>
      <point x="222.196" y="-135.478"/>
      <point x="220.196" y="-168.043"/>
      <point x="136.696" y="-168.043" type="curve" smooth="yes"/>
      <point x="53.196" y="-168.043"/>
      <point x="52.739" y="-135.478"/>
      <point x="52.739" y="-75.152" type="curve"/>
      <point x="0" y="-75.152" type="line"/>
      <point x="0" y="-159.326"/>
      <point x="6.522" y="-219.413"/>
    </contour>
  </outline>
</glyph>
<glyph name="macronbelowcomb" format="2">
  <advance width="288.91304"/>
  <unicode hex="0331"/>
  <anchor x="144.457" y="0" name="_bottom"/>
  <anchor x="144.457" y="-175.826" name="bottom"/>
  <outline>
    <contour>
      <point x="0" y="-176.283" type="line"/>
      <point x="288.913" y="-176.283" type="line"/>
      <point x="288.913" y="-119.196" type="line"/>
      <point x="0" y="-119.196" type="line"/>
    </contour>
  </outline>
</glyph>
<glyph name="mu" format="2">
  <advance width="598.56522"/>
  <unicode hex="03BC"/>
  <outline>
    <contour>
      <point x="86.413" y="-189.457" type="line"/>
      <point x="167.609" y="-189.457" type="line"/>
      <point x="167.609" y="34.913" type="line"/>
      <point x="184.435" y="34.913" type="line"/>
      <point x="109.065" y="75.565" type="line"/>
      <point x="143.391" y="18.152"/>
      <point x="189.217" y="-8"/>
      <point x="260.37" y="-8" type="curve" smooth="yes"/>
      <point x="364.457" y="-8"/>
      <point x="408.435" y="25.13"/>
      <point x="429.326" y="73.217" type="curve"/>
      <point x="435.5" y="73.217" type="line"/>
      <point x="439.043" y="0" type="line"/>
      <point x="512.152" y="0" type="line"/>
      <point x="512.152" y="510" type="line"/>
      <point x="430.957" y="510" type="line"/>
      <point x="430.957" y="246.543" type="line" smooth="yes"/>
      <point x="430.957" y="134.413"/>
      <point x="424.435" y="64.761"/>
      <point x="293.457" y="64.761" type="curve" smooth="yes"/>
      <point x="184.457" y="64.761"/>
      <point x="167.609" y="80.696"/>
      <point x="167.609" y="219.457" type="curve" smooth="yes"/>
      <point x="167.609" y="510" type="line"/>
      <point x="86.413" y="510" type="line"/>
    </contour>
  </outline>
</glyph>
<glyph name="perthousand" format="2">
  <advance width="962.04348"/>
  <unicode hex="2030"/>
  <outline>
    <contour>
      <point x="73.261" y="0" type="line"/>
      <point x="138.63" y="0" type="line"/>
      <point x="599.63" y="688" type="line"/>
      <point x="534.261" y="688" type="line"/>
    </contour>
    <contour>
      <point x="493.261" y="-8" type="curve" smooth="yes"/>
      <point x="609.87" y="-8"/>
      <point x="616.696" y="25.065"/>
      <point x="616.696" y="160" type="curve" smooth="yes"/>
      <point x="616.696" y="293.935"/>
      <point x="609.87" y="328"/>
      <point x="493.261" y="328" type="curve" smooth="yes"/>
      <point x="377.196" y="328"/>
      <point x="369.913" y="293.935"/>
      <point x="369.913" y="160" type="curve" smooth="yes"/>
      <point x="369.913" y="25.065"/>
      <point x="377.196" y="-8"/>
    </contour>
    <contour>
      <point x="493.261" y="39.043" type="curve" smooth="yes"/>
      <point x="429.13" y="39.043"/>
      <point x="423.935" y="41.043"/>
      <point x="423.935" y="160" type="curve" smooth="yes"/>
      <point x="423.935" y="278.957"/>
      <point x="429.13" y="280.957"/>
      <point x="493.261" y="280.957" type="curve" smooth="yes"/>
      <point x="560.761" y="280.957"/>
      <point x="562.674" y="278.957"/>
      <point x="562.674" y="160" type="curve" smooth="yes"/>
      <point x="562.674" y="41.043"/>
      <point x="558.022" y="39.043"/>
    </contour>
    <contour>
      <point x="179.543" y="360" type="curve" smooth="yes"/>
      <point x="296.152" y="360"/>
      <point x="302.978" y="393.065"/>
      <point x="302.978" y="528" type="curve" smooth="yes"/>
      <point x="302.978" y="661.935"/>
      <point x="296.152" y="696"/>
      <point x="179.543" y="696" type="curve" smooth="yes"/>
      <point x="63.478" y="696"/>
      <point x="56.196" y="661.935"/>
      <point x="56.196" y="528" type="curve" smooth="yes"/>
      <point x="56.196" y="393.065"/>
      <point x="63.478" y="360"/>
    </contour>
    <contour>
      <point x="179.543" y="407.043" type="curve" smooth="yes"/>
      <point x="114.87" y="407.043"/>
      <point x="109.674" y="409.043"/>
      <point x="109.674" y="528" type="curve" smooth="yes"/>
      <point x="109.674" y="646.957"/>
      <point x="114.87" y="648.957"/>
      <point x="179.543" y="648.957" type="curve" smooth="yes"/>
      <point x="247.043" y="648.957"/>
      <point x="248.957" y="646.957"/>
      <point x="248.957" y="528" type="curve" smooth="yes"/>
      <point x="248.957" y="409.043"/>
      <point x="243.761" y="407.043"/>
    </contour>
    <contour>
      <point x="782.957" y="-8" type="curve" smooth="yes"/>
      <point x="899.565" y="-8"/>
      <point x="906.391" y="25.065"/>
      <point x="906.391" y="160" type="curve" smooth="yes"/>
      <point x="906.391" y="293.935"/>
      <point x="899.565" y="328"/>
      <point x="782.957" y="328" type="curve" smooth="yes"/>
      <point x="666.891" y="328"/>
      <point x="659.609" y="293.935"/>
      <point x="659.609" y="160" type="curve" smooth="yes"/>
      <point x="659.609" y="25.065"/>
      <point x="666.891" y="-8"/>
    </contour>
    <contour>
      <point x="782.957" y="39.043" type="curve" smooth="yes"/>
      <point x="718.283" y="39.043"/>
      <point x="713.087" y="41.043"/>
      <point x="713.087" y="160" type="curve" smooth="yes"/>
      <point x="713.087" y="278.957"/>
      <point x="718.283" y="280.957"/>
      <point x="782.957" y="280.957" type="curve" smooth="yes"/>
      <point x="850.457" y="280.957"/>
      <point x="852.37" y="278.957"/>
      <point x="852.37" y="160" type="curve" smooth="yes"/>
      <point x="852.37" y="41.043"/>
      <point x="847.174" y="39.043"/>
    </contour>
  </outline>
</glyph>
<glyph name="euro" format="2">
  <advance width="619.56522"/>
  <unicode hex="20AC"/>
  <outline>
    <contour>
      <point x="399.109" y="-8" type="curve" smooth="yes"/>
      <point x="461.065" y="-8"/>
      <point x="527.152" y="-1.826"/>
      <point x="562.717" y="4.174" type="curve"/>
      <point x="562.717" y="75.674" type="line"/>
      <point x="530.326" y="70.761"/>
      <point x="473.043" y="66.217"/>
      <point x="421.065" y="66.217" type="curve" smooth="yes"/>
      <point x="257.413" y="66.217"/>
      <point x="220.674" y="81.413"/>
      <point x="213.13" y="241.13" type="curve"/>
      <point x="509.717" y="241.13" type="line"/>
      <point x="509.717" y="296.326" type="line"/>
      <point x="211.587" y="296.326" type="line"/>
      <point x="211.587" y="394.13" type="line"/>
      <point x="509.717" y="394.13" type="line"/>
      <point x="509.717" y="448.783" type="line"/>
      <point x="213.13" y="448.783" type="line"/>
      <point x="220.674" y="606.587"/>
      <point x="258.413" y="621.783"/>
      <point x="421.065" y="621.783" type="curve" smooth="yes"/>
      <point x="463.978" y="621.783"/>
      <point x="522.522" y="617.239"/>
      <point x="558.717" y="612.326" type="curve"/>
      <point x="558.717" y="681.283" type="line"/>
      <point x="525.609" y="688.283"/>
      <point x="461.522" y="696"/>
      <point x="399.109" y="696" type="curve" smooth="yes"/>
      <point x="193.935" y="696"/>
      <point x="138.217" y="649.152"/>
      <point x="126.587" y="448.783" type="curve"/>
      <point x="37.196" y="448.783" type="line"/>
      <point x="37.196" y="394.13" type="line"/>
      <point x="124.5" y="394.13" type="line"/>
      <point x="124.5" y="296.326" type="line"/>
      <point x="37.196" y="296.326" type="line"/>
      <point x="37.196" y="241.13" type="line"/>
      <point x="126.587" y="241.13" type="line"/>
      <point x="137.217" y="30.413"/>
      <point x="191.848" y="-8"/>
    </contour>
  </outline>
</glyph>
<glyph name="guarani" format="2">
  <advance width="614.08696"/>
  <unicode hex="20B2"/>
  <outline>
    <contour>
      <point x="308.283" y="71.457" type="curve" smooth="yes"/>
      <point x="517.804" y="71.457"/>
      <point x="534.957" y="114.348"/>
      <point x="534.957" y="296.826" type="curve" smooth="yes"/>
      <point x="534.957" y="378.109" type="line"/>
      <point x="312.935" y="378.109" type="line"/>
      <point x="312.935" y="305.522" type="line"/>
      <point x="449.5" y="305.522" type="line"/>
      <point x="449.5" y="280.348" type="line" smooth="yes"/>
      <point x="449.5" y="157.152"/>
      <point x="443.217" y="145.13"/>
      <point x="304.478" y="145.13" type="curve" smooth="yes"/>
      <point x="180.783" y="145.13"/>
      <point x="162.413" y="166.435"/>
      <point x="162.413" y="344" type="curve" smooth="yes"/>
      <point x="162.413" y="540.87"/>
      <point x="181.478" y="543.413"/>
      <point x="338.696" y="543.413" type="curve" smooth="yes"/>
      <point x="379.609" y="543.413"/>
      <point x="446.717" y="536.957"/>
      <point x="510.326" y="527.957" type="curve"/>
      <point x="510.326" y="597.457" type="line"/>
      <point x="456.63" y="609.087"/>
      <point x="376.283" y="617.63"/>
      <point x="316.196" y="617.63" type="curve" smooth="yes"/>
      <point x="119.674" y="617.63"/>
      <point x="76.413" y="573.5"/>
      <point x="76.413" y="344" type="curve" smooth="yes"/>
      <point x="76.413" y="115.587"/>
      <point x="122.283" y="71.457"/>
    </contour>
    <contour>
      <point x="279.326" y="-8" type="line"/>
      <point x="342.674" y="-8" type="line"/>
      <point x="342.674" y="106.304" type="line"/>
      <point x="279.326" y="106.304" type="line"/>
    </contour>
    <contour>
      <point x="279.326" y="578.261" type="line"/>
      <point x="342.674" y="578.261" type="line"/>
      <point x="342.674" y="696" type="line"/>
      <point x="279.326" y="696" type="line"/>
    </contour>
  </outline>
</glyph>
<glyph name="rupeeIndian" format="2">
  <advance width="611.19565"/>
  <unicode hex="20B9"/>
  <outline>
    <contour>
      <point x="415.674" y="0" type="line"/>
      <point x="541.522" y="0" type="line"/>
      <point x="217.696" y="273.348" type="line"/>
      <point x="319.87" y="273.348" type="line" smooth="yes"/>
      <point x="466.761" y="273.348"/>
      <point x="524" y="321.543"/>
      <point x="531.261" y="453.174" type="curve"/>
      <point x="611.196" y="453.174" type="line"/>
      <point x="611.196" y="507.457" type="line"/>
      <point x="531.261" y="507.457" type="line"/>
      <point x="529.717" y="557.304"/>
      <point x="521.63" y="602.435"/>
      <point x="488.391" y="633.717" type="curve"/>
      <point x="611.196" y="633.717" type="line"/>
      <point x="611.196" y="688" type="line"/>
      <point x="79.783" y="688" type="line"/>
      <point x="79.783" y="613.783" type="line"/>
      <point x="310.957" y="613.783" type="line" smooth="yes"/>
      <point x="424.826" y="613.783"/>
      <point x="442.63" y="577.696"/>
      <point x="445.261" y="507.457" type="curve"/>
      <point x="79.783" y="507.457" type="line"/>
      <point x="79.783" y="453.174" type="line"/>
      <point x="445.261" y="453.174" type="line"/>
      <point x="441.087" y="385.196"/>
      <point x="420.283" y="347.565"/>
      <point x="303.565" y="347.565" type="curve" smooth="yes"/>
      <point x="79.783" y="347.565" type="line"/>
      <point x="79.783" y="280.609" type="line"/>
    </contour>
  </outline>
</glyph>
<glyph name="liraTurkish" format="2">
  <advance width="562.65217"/>
  <unicode hex="20BA"/>
  <outline>
    <contour>
      <point x="99.783" y="0" type="line"/>
      <point x="282.696" y="0" type="line" smooth="yes"/>
      <point x="508.87" y="0"/>
      <point x="562.652" y="65.413"/>
      <point x="562.652" y="263.087" type="curve"/>
      <point x="482.087" y="263.087" type="line"/>
      <point x="482.087" y="105.196"/>
      <point x="451.761" y="74.217"/>
      <point x="282.696" y="74.217" type="curve" smooth="yes"/>
      <point x="185.783" y="74.217" type="line"/>
      <point x="185.783" y="251.37" type="line"/>
      <point x="395.957" y="291.022" type="line"/>
      <point x="395.957" y="344.13" type="line"/>
      <point x="185.783" y="304.478" type="line"/>
      <point x="185.783" y="405.37" type="line"/>
      <point x="395.957" y="445.022" type="line"/>
      <point x="395.957" y="498.13" type="line"/>
      <point x="185.783" y="458.478" type="line"/>
      <point x="185.783" y="688" type="line"/>
      <point x="99.783" y="688" type="line"/>
      <point x="99.783" y="442.239" type="line"/>
      <point x="28.043" y="428.783" type="line"/>
      <point x="28.043" y="375.674" type="line"/>
      <point x="99.783" y="389.13" type="line"/>
      <point x="99.783" y="288.239" type="line"/>
      <point x="28.043" y="274.783" type="line"/>
      <point x="28.043" y="221.674" type="line"/>
      <point x="99.783" y="235.13" type="line"/>
    </contour>
  </outline>
</glyph>
<glyph name="C.001" format="2">
  <advance width="720"/>
  <anchor x="363" y="0" name="bottom"/>
  <anchor x="363" y="688" name="top"/>
  <outline>
    <contour>
      <point x="486" y="-8" type="curve" smooth="yes"/>
      <point x="542" y="-8"/>
      <point x="608" y="-3"/>
      <point x="646" y="5" type="curve"/>
      <point x="646" y="76" type="line"/>
      <point x="609" y="70"/>
      <point x="546" y="66"/>
      <point x="486" y="66" type="curve" smooth="yes"/>
      <point x="303" y="66"/>
      <point x="290" y="83"/>
      <point x="290" y="310" type="curve" smooth="yes"/>
      <point x="290" y="378" type="line" smooth="yes"/>
      <point x="290" y="605"/>
      <point x="303" y="622"/>
      <point x="486" y="622" type="curve" smooth="yes"/>
      <point x="543" y="622"/>
      <point x="599" y="618"/>
      <point x="642" y="612" type="curve"/>
      <point x="642" y="681" type="line"/>
      <point x="605" y="690"/>
      <point x="540" y="696"/>
      <point x="486" y="696" type="curve" smooth="yes"/>
      <point x="124" y="696"/>
      <point x="60" y="644"/>
      <point x="60" y="349" type="curve" smooth="yes"/>
      <point x="60" y="339" type="line" smooth="yes"/>
      <point x="60" y="44"/>
      <point x="124" y="-8"/>
    </contour>
  </outline>
</glyph>
<glyph name="M.001" format="2">
  <advance width="930"/>
  <anchor x="465" y="0" name="bottom"/>
  <anchor x="465" y="688" name="top"/>
  <outline>
    <contour>
      <point x="78" y="0" type="line"/>
      <point x="160" y="0" type="line"/>
      <point x="160" y="478" type="line"/>
      <point x="164" y="478" type="line"/>
      <point x="322" y="0" type="line"/>
      <point x="460" y="0" type="line"/>
      <point x="618" y="478" type="line"/>
      <point x="622" y="478" type="line"/>
      <point x="622" y="0" type="line"/>
      <point x="852" y="0" type="line"/>
      <point x="852" y="688" type="line"/>
      <point x="613" y="688" type="line"/>
      <point x="471" y="240" type="line"/>
      <point x="466" y="240" type="line"/>
      <point x="322" y="688" type="line"/>
      <point x="78" y="688" type="line"/>
    </contour>
  </outline>
</glyph>
<glyph name="Y.001" format="2">
  <advance width="707"/>
  <anchor x="607" y="0" name="bottom"/>
  <anchor x="607" y="688" name="top"/>
  <anchor x="314" y="688" name="topleft"/>
  <outline>
    <contour>
      <point x="240" y="0" type="line"/>
      <point x="470" y="0" type="line"/>
      <point x="470" y="333" type="line"/>
      <point x="425" y="189" type="line"/>
      <point x="699" y="688" type="line"/>
      <point x="607" y="688" type="line"/>
      <point x="438" y="368" type="line"/>
      <point x="434" y="368" type="line"/>
      <point x="265" y="688" type="line"/>
      <point x="8" y="688" type="line"/>
      <point x="284" y="186" type="line"/>
      <point x="240" y="333" type="line"/>
    </contour>
  </outline>
</glyph>
<glyph name="Z.001" format="2">
  <advance width="701"/>
  <anchor x="226" y="0" name="bottom"/>
  <anchor x="226" y="344" name="center"/>
  <anchor x="226" y="688" name="top"/>
  <outline>
    <contour>
      <point x="39" y="0" type="line"/>
      <point x="662" y="0" type="line"/>
      <point x="662" y="180" type="line"/>
      <point x="197" y="180" type="line"/>
      <point x="657" y="529" type="line"/>
      <point x="657" y="688" type="line"/>
      <point x="53" y="688" type="line"/>
      <point x="53" y="508" type="line"/>
      <point x="499" y="508" type="line"/>
      <point x="39" y="159" type="line"/>
    </contour>
  </outline>
</glyph>
<glyph name="_tail.Q" format="2">
  <advance width="294"/>
  <anchor x="132" y="10" name="_bottom"/>
  <outline>
    <contour>
      <point x="20" y="10" type="line"/>
      <point x="50" y="-146" type="line"/>
      <point x="274" y="-146" type="line"/>
      <point x="244" y="10" type="line"/>
    </contour>
  </outline>
</glyph>
<glyph name="a.001" format="2">
  <advance width="848"/>
  <anchor x="428" y="0" name="bottom"/>
  <anchor x="662" y="10" name="ogonek"/>
  <anchor x="428" y="510" name="top"/>
  <outline>
    <contour>
      <point x="296" y="-8" type="curve" smooth="yes"/>
      <point x="432" y="-8"/>
      <point x="507" y="19"/>
      <point x="542" y="78" type="curve"/>
      <point x="546" y="78" type="line"/>
      <point x="556" y="0" type="line"/>
      <point x="774" y="0" type="line"/>
      <point x="774" y="259" type="line" smooth="yes"/>
      <point x="774" y="479"/>
      <point x="720" y="518"/>
      <point x="416" y="518" type="curve" smooth="yes"/>
      <point x="296" y="518"/>
      <point x="154" y="510"/>
      <point x="76" y="498" type="curve"/>
      <point x="76" y="430" type="line"/>
      <point x="147" y="441"/>
      <point x="258" y="448"/>
      <point x="342" y="448" type="curve" smooth="yes"/>
      <point x="531" y="448"/>
      <point x="544" y="438"/>
      <point x="544" y="307" type="curve" smooth="yes"/>
      <point x="544" y="283" type="line" smooth="yes"/>
      <point x="544" y="117"/>
      <point x="517" y="82"/>
      <point x="392" y="82" type="curve" smooth="yes"/>
      <point x="299" y="82"/>
      <point x="280" y="94"/>
      <point x="280" y="149" type="curve" smooth="yes"/>
      <point x="280" y="203"/>
      <point x="302" y="215"/>
      <point x="393" y="215" type="curve" smooth="yes"/>
      <point x="648" y="215" type="line"/>
      <point x="648" y="335" type="line"/>
      <point x="372" y="335" type="line" smooth="yes"/>
      <point x="133" y="335"/>
      <point x="50" y="286"/>
      <point x="50" y="149" type="curve" smooth="yes"/>
      <point x="50" y="29"/>
      <point x="107" y="-8"/>
    </contour>
  </outline>
</glyph>
<glyph name="c.001" format="2">
  <advance width="596"/>
  <anchor x="295" y="0" name="bottom"/>
  <anchor x="295" y="510" name="top"/>
  <outline>
    <contour>
      <point x="364" y="-8" type="curve" smooth="yes"/>
      <point x="435" y="-8"/>
      <point x="515" y="-2"/>
      <point x="563" y="7" type="curve"/>
      <point x="563" y="75" type="line"/>
      <point x="526" y="67"/>
      <point x="465" y="62"/>
      <point x="417" y="62" type="curve" smooth="yes"/>
      <point x="294" y="62"/>
      <point x="285" y="74"/>
      <point x="285" y="231" type="curve" smooth="yes"/>
      <point x="285" y="279" type="line" smooth="yes"/>
      <point x="285" y="436"/>
      <point x="294" y="448"/>
      <point x="417" y="448" type="curve" smooth="yes"/>
      <point x="463" y="448"/>
      <point x="522" y="443"/>
      <point x="558" y="435" type="curve"/>
      <point x="558" y="503" type="line"/>
      <point x="511" y="512"/>
      <point x="432" y="518"/>
      <point x="364" y="518" type="curve" smooth="yes"/>
      <point x="102" y="518"/>
      <point x="55" y="479"/>
      <point x="55" y="259" type="curve" smooth="yes"/>
      <point x="55" y="251" type="line" smooth="yes"/>
      <point x="55" y="31"/>
      <point x="102" y="-8"/>
    </contour>
  </outline>
</glyph>
<glyph name="c.002" format="2">
  <advance width="668"/>
  <anchor x="290" y="0" name="bottom"/>
  <anchor x="290" y="510" name="top"/>
  <outline>
    <contour>
      <point x="409" y="-8" type="curve" smooth="yes"/>
      <point x="489" y="-8"/>
      <point x="580" y="-2"/>
      <point x="635" y="7" type="curve"/>
      <point x="635" y="75" type="line"/>
      <point x="590" y="67"/>
      <point x="511" y="62"/>
      <point x="451" y="62" type="curve" smooth="yes"/>
      <point x="297" y="62"/>
      <point x="285" y="74"/>
      <point x="285" y="231" type="curve" smooth="yes"/>
      <point x="285" y="279" type="line" smooth="yes"/>
      <point x="285" y="436"/>
      <point x="297" y="448"/>
      <point x="451" y="448" type="curve" smooth="yes"/>
      <point x="509" y="448"/>
      <point x="583" y="443"/>
      <point x="629" y="435" type="curve"/>
      <point x="629" y="503" type="line"/>
      <point x="576" y="512"/>
      <point x="487" y="518"/>
      <point x="409" y="518" type="curve" smooth="yes"/>
      <point x="109" y="518"/>
      <point x="55" y="479"/>
      <point x="55" y="259" type="curve" smooth="yes"/>
      <point x="55" y="251" type="line" smooth="yes"/>
      <point x="55" y="31"/>
      <point x="109" y="-8"/>
    </contour>
  </outline>
</glyph>
<glyph name="c.004" format="2">
  <advance width="648"/>
  <anchor x="290" y="0" name="bottom"/>
  <anchor x="290" y="510" name="top"/>
  <outline>
    <contour>
      <point x="399" y="-8" type="curve" smooth="yes"/>
      <point x="474" y="-8"/>
      <point x="562" y="-2"/>
      <point x="615" y="7" type="curve"/>
      <point x="615" y="75" type="line"/>
      <point x="572" y="67"/>
      <point x="498" y="62"/>
      <point x="441" y="62" type="curve" smooth="yes"/>
      <point x="296" y="62"/>
      <point x="285" y="74"/>
      <point x="285" y="231" type="curve" smooth="yes"/>
      <point x="285" y="279" type="line" smooth="yes"/>
      <point x="285" y="436"/>
      <point x="296" y="448"/>
      <point x="441" y="448" type="curve" smooth="yes"/>
      <point x="496" y="448"/>
      <point x="566" y="443"/>
      <point x="609" y="435" type="curve"/>
      <point x="609" y="503" type="line"/>
      <point x="558" y="512"/>
      <point x="473" y="518"/>
      <point x="399" y="518" type="curve" smooth="yes"/>
      <point x="107" y="518"/>
      <point x="55" y="479"/>
      <point x="55" y="259" type="curve" smooth="yes"/>
      <point x="55" y="251" type="line" smooth="yes"/>
      <point x="55" y="31"/>
      <point x="107" y="-8"/>
    </contour>
  </outline>
</glyph>
<glyph name="caroncomb.case" format="2">
  <advance width="289.34783"/>
  <anchor x="144.674" y="510" name="_top"/>
  <anchor x="144.674" y="683" name="top"/>
  <outline>
    <contour>
      <point x="101.565" y="594.587" type="line"/>
      <point x="187.239" y="594.587" type="line"/>
      <point x="289.348" y="728.761" type="line"/>
      <point x="289.348" y="734.848" type="line"/>
      <point x="233" y="734.848" type="line"/>
      <point x="144.13" y="638.174" type="line"/>
      <point x="55.804" y="734.848" type="line"/>
      <point x="0" y="734.848" type="line"/>
      <point x="0" y="728.761" type="line"/>
    </contour>
  </outline>
</glyph>
<glyph name="circumflexcomb.case" format="2">
  <advance width="289.34783"/>
  <anchor x="144.674" y="510" name="_top"/>
  <anchor x="144.674" y="688" name="top"/>
  <outline>
    <contour>
      <point x="0" y="595.043" type="line"/>
      <point x="55.804" y="595.043" type="line"/>
      <point x="144.13" y="691.63" type="line"/>
      <point x="233" y="595.043" type="line"/>
      <point x="289.348" y="595.043" type="line"/>
      <point x="289.348" y="601.13" type="line"/>
      <point x="187.239" y="735.761" type="line"/>
      <point x="101.565" y="735.761" type="line"/>
      <point x="0" y="601.13" type="line"/>
    </contour>
  </outline>
</glyph>
<glyph name="dialog" format="2">
  <advance width="805"/>
  <outline>
    <contour>
      <point x="306" y="-212" type="line"/>
      <point x="519" y="0" type="line"/>
      <point x="746" y="0" type="line"/>
      <point x="746" y="688" type="line"/>
      <point x="59" y="688" type="line"/>
      <point x="59" y="0" type="line"/>
      <point x="306" y="0" type="line"/>
      <point x="306" y="60" type="line"/>
      <point x="119" y="60" type="line"/>
      <point x="119" y="628" type="line"/>
      <point x="686" y="628" type="line"/>
      <point x="686" y="60" type="line"/>
      <point x="494" y="60" type="line"/>
      <point x="306" y="-127" type="line"/>
    </contour>
  </outline>
</glyph>
<glyph name="five.tosf" format="2">
  <advance width="620"/>
  <outline>
    <contour>
      <point x="294.37" y="-7" type="curve" smooth="yes"/>
      <point x="488.435" y="-7"/>
      <point x="532.609" y="45.065"/>
      <point x="532.609" y="181.609" type="curve" smooth="yes"/>
      <point x="532.609" y="291.696"/>
      <point x="502.457" y="349.043"/>
      <point x="327.13" y="349.043" type="curve" smooth="yes"/>
      <point x="285" y="349.043"/>
      <point x="226.087" y="345.587"/>
      <point x="190.348" y="340.674" type="curve"/>
      <point x="190.348" y="516.13" type="line"/>
      <point x="485.609" y="516.13" type="line"/>
      <point x="485.609" y="585" type="line"/>
      <point x="115.13" y="585" type="line"/>
      <point x="115.13" y="270.348" type="line"/>
      <point x="172.348" y="277.261"/>
      <point x="237.413" y="282.261"/>
      <point x="276.37" y="282.261" type="curve" smooth="yes"/>
      <point x="417.5" y="282.261"/>
      <point x="448.783" y="269.152"/>
      <point x="448.783" y="173.435" type="curve" smooth="yes"/>
      <point x="448.783" y="86.63"/>
      <point x="421.217" y="60.783"/>
      <point x="288.391" y="60.783" type="curve" smooth="yes"/>
      <point x="243.304" y="60.783"/>
      <point x="170.13" y="65.326"/>
      <point x="108.13" y="71.326" type="curve"/>
      <point x="108.13" y="7.717" type="line"/>
      <point x="158.022" y="-0.457"/>
      <point x="236.826" y="-7"/>
    </contour>
  </outline>
</glyph>
<glyph name="four.numr" format="2">
  <advance width="370.82609"/>
  <outline>
    <contour>
      <point x="232.239" y="308" type="line"/>
      <point x="291.609" y="308" type="line"/>
      <point x="291.609" y="392.565" type="line"/>
      <point x="347.174" y="392.565" type="line"/>
      <point x="347.174" y="441.326" type="line"/>
      <point x="291.609" y="441.326" type="line"/>
      <point x="291.609" y="564.217" type="line"/>
      <point x="248.022" y="564.217" type="line"/>
      <point x="233.326" y="441.326" type="line"/>
      <point x="91.196" y="441.326" type="line"/>
      <point x="235.413" y="685.087" type="line"/>
      <point x="169.413" y="685.087" type="line"/>
      <point x="26.826" y="435.696" type="line"/>
      <point x="26.826" y="392.565" type="line"/>
      <point x="232.239" y="392.565" type="line"/>
    </contour>
  </outline>
</glyph>
<glyph name="leftArrow.ss01" format="2">
  <advance width="363"/>
  <outline>
    <contour>
      <point x="315" y="201" type="line"/>
      <point x="315" y="486" type="line"/>
      <point x="30" y="343" type="line"/>
    </contour>
  </outline>
</glyph>
<glyph name="n.001" format="2">
  <advance width="876"/>
  <anchor x="438" y="0" name="bottom"/>
  <anchor x="438" y="510" name="top"/>
  <outline>
    <contour>
      <point x="78" y="0" type="line"/>
      <point x="308" y="0" type="line"/>
      <point x="308" y="254" type="line" smooth="yes"/>
      <point x="308" y="395"/>
      <point x="347" y="448"/>
      <point x="451" y="448" type="curve" smooth="yes"/>
      <point x="553" y="448"/>
      <point x="572" y="425"/>
      <point x="572" y="292" type="curve" smooth="yes"/>
      <point x="572" y="0" type="line"/>
      <point x="802" y="0" type="line"/>
      <point x="802" y="319" type="line" smooth="yes"/>
      <point x="802" y="472"/>
      <point x="742" y="518"/>
      <point x="545" y="518" type="curve" smooth="yes"/>
      <point x="417" y="518"/>
      <point x="341" y="493"/>
      <point x="309" y="437" type="curve"/>
      <point x="305" y="437" type="line"/>
      <point x="296" y="510" type="line"/>
      <point x="78" y="510" type="line"/>
    </contour>
  </outline>
</glyph>
<glyph name="o.002" format="2">
  <advance width="854"/>
  <anchor x="427" y="0" name="bottom"/>
  <anchor x="427" y="255" name="center"/>
  <anchor x="662" y="10" name="ogonek"/>
  <anchor x="427" y="510" name="top"/>
  <anchor x="701" y="510" name="topright"/>
  <outline>
    <contour>
      <point x="427" y="-8" type="curve" smooth="yes"/>
      <point x="726" y="-8"/>
      <point x="799" y="43"/>
      <point x="799" y="251" type="curve" smooth="yes"/>
      <point x="799" y="259" type="line" smooth="yes"/>
      <point x="799" y="467"/>
      <point x="726" y="518"/>
      <point x="427" y="518" type="curve" smooth="yes"/>
      <point x="128" y="518"/>
      <point x="55" y="467"/>
      <point x="55" y="259" type="curve" smooth="yes"/>
      <point x="55" y="251" type="line" smooth="yes"/>
      <point x="55" y="43"/>
      <point x="128" y="-8"/>
    </contour>
    <contour>
      <point x="427" y="62" type="curve" smooth="yes"/>
      <point x="295" y="62"/>
      <point x="285" y="73"/>
      <point x="285" y="231" type="curve" smooth="yes"/>
      <point x="285" y="279" type="line" smooth="yes"/>
      <point x="285" y="437"/>
      <point x="295" y="448"/>
      <point x="427" y="448" type="curve" smooth="yes"/>
      <point x="559" y="448"/>
      <point x="569" y="437"/>
      <point x="569" y="279" type="curve" smooth="yes"/>
      <point x="569" y="231" type="line" smooth="yes"/>
      <point x="569" y="73"/>
      <point x="559" y="62"/>
    </contour>
  </outline>
</glyph>
<glyph name="orn.020" format="2">
  <advance width="415"/>
  <outline>
    <contour>
      <point x="204" y="46" type="line"/>
      <point x="303" y="108"/>
      <point x="370" y="218"/>
      <point x="370" y="344" type="curve" smooth="yes"/>
      <point x="370" y="469"/>
      <point x="303" y="580"/>
      <point x="204" y="642" type="curve"/>
      <point x="172" y="591" type="line"/>
      <point x="254" y="540"/>
      <point x="310" y="448"/>
      <point x="310" y="344" type="curve" smooth="yes"/>
      <point x="310" y="239"/>
      <point x="255" y="148"/>
      <point x="172" y="96" type="curve"/>
    </contour>
    <contour>
      <point x="78" y="248" type="line"/>
      <point x="109" y="268"/>
      <point x="130" y="302"/>
      <point x="130" y="344" type="curve" smooth="yes"/>
      <point x="130" y="385"/>
      <point x="109" y="420"/>
      <point x="77" y="440" type="curve"/>
      <point x="45" y="389" type="line"/>
      <point x="60" y="380"/>
      <point x="70" y="364"/>
      <point x="70" y="344" type="curve" smooth="yes"/>
      <point x="70" y="324"/>
      <point x="60" y="308"/>
      <point x="46" y="299" type="curve"/>
    </contour>
    <contour>
      <point x="141" y="147" type="line"/>
      <point x="206" y="188"/>
      <point x="250" y="261"/>
      <point x="250" y="344" type="curve" smooth="yes"/>
      <point x="250" y="427"/>
      <point x="206" y="500"/>
      <point x="140" y="541" type="curve"/>
      <point x="108" y="490" type="line"/>
      <point x="157" y="459"/>
      <point x="190" y="405"/>
      <point x="190" y="344" type="curve" smooth="yes"/>
      <point x="190" y="282"/>
      <point x="157" y="229"/>
      <point x="109" y="198" type="curve"/>
    </contour>
  </outline>
</glyph>
<glyph name="orn.021" format="2">
  <advance width="753"/>
  <outline>
    <contour>
      <point x="376" y="-116" type="curve"/>
      <point x="569" y="-16"/>
      <point x="708" y="185"/>
      <point x="708" y="364" type="curve" smooth="yes"/>
      <point x="708" y="557"/>
      <point x="569" y="696"/>
      <point x="376" y="696" type="curve" smooth="yes"/>
      <point x="184" y="696"/>
      <point x="45" y="557"/>
      <point x="45" y="364" type="curve" smooth="yes"/>
      <point x="45" y="186"/>
      <point x="184" y="-16"/>
    </contour>
  </outline>
</glyph>
<glyph name="s.001" format="2">
  <advance width="694"/>
  <anchor x="347" y="0" name="bottom"/>
  <anchor x="347" y="510" name="top"/>
  <outline>
    <contour>
      <point x="309" y="-9" type="curve" smooth="yes"/>
      <point x="580" y="-9"/>
      <point x="654" y="28"/>
      <point x="654" y="164" type="curve" smooth="yes"/>
      <point x="654" y="249"/>
      <point x="607" y="291"/>
      <point x="502" y="301" type="curve" smooth="yes"/>
      <point x="339" y="319" type="line" smooth="yes"/>
      <point x="289" y="324"/>
      <point x="270" y="342"/>
      <point x="270" y="384" type="curve" smooth="yes"/>
      <point x="270" y="439"/>
      <point x="295" y="450"/>
      <point x="422" y="450" type="curve" smooth="yes"/>
      <point x="486" y="450"/>
      <point x="568" y="443"/>
      <point x="629" y="431" type="curve"/>
      <point x="629" y="499" type="line"/>
      <point x="573" y="512"/>
      <point x="469" y="520"/>
      <point x="357" y="520" type="curve" smooth="yes"/>
      <point x="108" y="520"/>
      <point x="40" y="483"/>
      <point x="40" y="348" type="curve" smooth="yes"/>
      <point x="40" y="267"/>
      <point x="89" y="225"/>
      <point x="188" y="215" type="curve" smooth="yes"/>
      <point x="351" y="196" type="line" smooth="yes"/>
      <point x="404" y="191"/>
      <point x="424" y="173"/>
      <point x="424" y="130" type="curve" smooth="yes"/>
      <point x="424" y="73"/>
      <point x="398" y="61"/>
      <point x="264" y="61" type="curve" smooth="yes"/>
      <point x="197" y="61"/>
      <point x="110" y="68"/>
      <point x="46" y="80" type="curve"/>
      <point x="46" y="12" type="line"/>
      <point x="100" y="-1"/>
      <point x="201" y="-9"/>
    </contour>
  </outline>
</glyph>
<glyph name="s.002" format="2">
  <advance width="694"/>
  <anchor x="347" y="0" name="bottom"/>
  <anchor x="347" y="510" name="top"/>
  <outline>
    <contour>
      <point x="309" y="-9" type="curve" smooth="yes"/>
      <point x="580" y="-9"/>
      <point x="654" y="32"/>
      <point x="654" y="182" type="curve" smooth="yes"/>
      <point x="654" y="278"/>
      <point x="607" y="324"/>
      <point x="502" y="336" type="curve" smooth="yes"/>
      <point x="339" y="354" type="line" smooth="yes"/>
      <point x="289" y="358"/>
      <point x="270" y="371"/>
      <point x="270" y="402" type="curve" smooth="yes"/>
      <point x="270" y="442"/>
      <point x="295" y="450"/>
      <point x="422" y="450" type="curve" smooth="yes"/>
      <point x="486" y="450"/>
      <point x="568" y="443"/>
      <point x="629" y="431" type="curve"/>
      <point x="629" y="499" type="line"/>
      <point x="573" y="512"/>
      <point x="469" y="520"/>
      <point x="357" y="520" type="curve" smooth="yes"/>
      <point x="108" y="520"/>
      <point x="40" y="479"/>
      <point x="40" y="330" type="curve" smooth="yes"/>
      <point x="40" y="239"/>
      <point x="89" y="192"/>
      <point x="188" y="180" type="curve" smooth="yes"/>
      <point x="351" y="161" type="line" smooth="yes"/>
      <point x="404" y="157"/>
      <point x="424" y="144"/>
      <point x="424" y="112" type="curve" smooth="yes"/>
      <point x="424" y="70"/>
      <point x="398" y="61"/>
      <point x="264" y="61" type="curve" smooth="yes"/>
      <point x="197" y="61"/>
      <point x="110" y="68"/>
      <point x="46" y="80" type="curve"/>
      <point x="46" y="12" type="line"/>
      <point x="100" y="-1"/>
      <point x="201" y="-9"/>
    </contour>
  </outline>
</glyph>
<glyph name="three.dnom" format="2">
  <advance width="350.91304"/>
  <outline>
    <contour>
      <point x="154.543" y="-4" type="curve" smooth="yes"/>
      <point x="280.63" y="-4"/>
      <point x="307.717" y="32.087"/>
      <point x="307.717" y="100.543" type="curve" smooth="yes"/>
      <point x="307.717" y="162.543"/>
      <point x="280.804" y="183.457"/>
      <point x="235.804" y="191.543" type="curve"/>
      <point x="235.804" y="193.543" type="line"/>
      <point x="279.348" y="203.087"/>
      <point x="303.261" y="227.543"/>
      <point x="303.261" y="283.087" type="curve" smooth="yes"/>
      <point x="303.261" y="353.913"/>
      <point x="267.717" y="382.087"/>
      <point x="155.543" y="382.087" type="curve" smooth="yes"/>
      <point x="120" y="382.087"/>
      <point x="69.37" y="377.543"/>
      <point x="36.826" y="372.543" type="curve"/>
      <point x="36.826" y="326.326" type="line"/>
      <point x="69.283" y="330.326"/>
      <point x="112.283" y="332.326"/>
      <point x="142.37" y="332.326" type="curve" smooth="yes"/>
      <point x="215.5" y="332.326"/>
      <point x="242.804" y="326.5"/>
      <point x="242.804" y="274.283" type="curve" smooth="yes"/>
      <point x="242.804" y="224.978"/>
      <point x="213.13" y="215.152"/>
      <point x="175.304" y="215.152" type="curve" smooth="yes"/>
      <point x="100.739" y="215.152" type="line"/>
      <point x="100.739" y="166.935" type="line"/>
      <point x="175.304" y="166.935" type="line" smooth="yes"/>
      <point x="227.152" y="166.935"/>
      <point x="246.261" y="152.826"/>
      <point x="246.261" y="104.348" type="curve" smooth="yes"/>
      <point x="246.261" y="50.13"/>
      <point x="213.043" y="44.761"/>
      <point x="147.826" y="44.761" type="curve" smooth="yes"/>
      <point x="120.826" y="44.761"/>
      <point x="73.826" y="47.761"/>
      <point x="34.826" y="50.761" type="curve"/>
      <point x="34.826" y="5.087" type="line"/>
      <point x="68.913" y="-0.457"/>
      <point x="119.457" y="-4"/>
    </contour>
  </outline>
</glyph>
<glyph name="v.001" format="2">
  <advance width="671"/>
  <anchor x="406" y="0" name="bottom"/>
  <anchor x="406" y="510" name="top"/>
  <outline>
    <contour>
      <point x="222" y="0" type="line"/>
      <point x="458" y="0" type="line"/>
      <point x="645" y="510" type="line"/>
      <point x="560" y="510" type="line"/>
      <point x="411" y="85" type="line"/>
      <point x="407" y="85" type="line"/>
      <point x="253" y="510" type="line"/>
      <point x="26" y="510" type="line"/>
    </contour>
  </outline>
</glyph>
<glyph name="zero.dnom" format="2">
  <advance width="388.1087"/>
  <outline>
    <contour>
      <point x="193.826" y="-4" type="curve" smooth="yes"/>
      <point x="338.739" y="-4"/>
      <point x="344" y="21.457"/>
      <point x="344" y="188.543" type="curve" smooth="yes"/>
      <point x="344" y="355.63"/>
      <point x="337.283" y="382.087"/>
      <point x="193.826" y="382.087" type="curve" smooth="yes"/>
      <point x="49.37" y="382.087"/>
      <point x="44.109" y="355.63"/>
      <point x="44.109" y="188.543" type="curve" smooth="yes"/>
      <point x="44.109" y="21.457"/>
      <point x="49.37" y="-4"/>
    </contour>
    <contour>
      <point x="193.826" y="44.761" type="curve" smooth="yes"/>
      <point x="107.022" y="44.761"/>
      <point x="105.565" y="46.761"/>
      <point x="105.565" y="188.543" type="curve" smooth="yes"/>
      <point x="105.565" y="330.326"/>
      <point x="107.022" y="332.326"/>
      <point x="193.826" y="332.326" type="curve" smooth="yes"/>
      <point x="281.087" y="332.326"/>
      <point x="282.543" y="330.326"/>
      <point x="282.543" y="188.543" type="curve" smooth="yes"/>
      <point x="282.543" y="46.761"/>
      <point x="281.087" y="44.761"/>
    </contour>
  </outline>
</glyph>
<glyph name="zero.tosf.zero" format="2">
  <advance width="620"/>
  <outline>
    <contour>
      <point x="116.587" y="260.696" type="line"/>
      <point x="504.87" y="260.696" type="line"/>
      <point x="504.87" y="324.935" type="line"/>
      <point x="116.587" y="324.935" type="line"/>
    </contour>
    <component base="zero.osf"/>
  </outline>
</glyph>
